<svg width="997.72" height="631.975" viewBox="0 0 263.985 167.213" xmlns="http://www.w3.org/2000/svg"><g stroke-width=".353"><path d="M132.885 45.34l-.802-.03.276.62.03.31-.199.406-.144.408.168.203.01.158-.158.151-.182.02-.268-.531-.68.412-.205 1.812-1.593.357-.157-.303-.39-.525-.622-.638 1.37-.527-.03-.436-.274-.228-1.83.535-.735.328-.315.176-.88-.258-.166-.362-.351-.872-.684-.303-.888.67-.915-.031-.01.285.384.46-2.71.225-.12-1.505-.52-.76-.423-.72-2.7.441.637 1.703-1.59 1.577-.643-.152-1.582-.402-3.2.686-.017.986.466.443.622 1.645.135-.1 1.244 1.94-.227.886.305 1.539.237 1.597-.711.356-.372.641.47 2.24-.147.788.388.159-.622 2.435 1.393 1.664.558 2.013 1.024-.34 1.245.38.681-.11-.017 2.154-.378.936-1.743 3.007-2.44.895-.32.797.92.687-.57 1.426-.831.378.665 3.2 1.665 1.413 1.395 1.182 1.643 1.392.091.273.06.178.034.214.47.37 1.31 1.03 2.077-1.203 1.518.154 1.234.045h1.202l.772 1.05 1.135.282 1.426 1.257 1.221-.587 1.282-.702 1.866.764.982-.732 2.458 1.197 2.275-1.726 2.75-1.105 1.138.888.474.985 1.192-.671 1.699.241.112.57-.523.944.897 3.488-.085 1.876-1.378.227-1.624-.566-.012 1.542.879 1.632.6.467-.114 1.884-.89 3.48 1.148 3.239 3.06 1.635.417-.527 2.003-.459-.225-1.162.272-2.07.865-.963 2.177.38 1.043.935 1.41-.448 1.46 1.106 1.359-1.09.8-.305-.019-3.01-1.598-1.629.162-1.216 1.366-1.226-.307-1.054-.084-1.285 1.142-.84.954.222 1.949-1.422.238-1.718 1.166-.891.836 1.49 1.778-.79.315-2.261.833-.324-.408-1.534.089-.63 1.019-.191 1.767-1.62.197-1.261-.61-1.064 4.843-2.897-.176-1.98-.014-.156-.36-.534-.713-1.058 1.598-.74-.485-.89.912-1.784-1.275-.78-1.382-2.49-.956-1.48-.903-.309.32-1.092 1.36-.5 1.338-.86.683-2.278-.428-1.275.95-1.06.062-.95-1.59-.286-.24-.93-2.438-1.037-.13-.622-2.414.569-.681 1.112-.621-.296.399-.566-.935-.602-1.669-2.088-1.17.03-.593-.378-.437.89-.57.242-.49-.133-.374.028-.604 1.217-1.055.077-.735.451-.054.796-.844 1.763-1.274 1.07-.678.862-1.712.113-1.141.563-.851.18-.378-1.015-2.531.532-.003.63.253.572.085.41-.11.18-.366.492-.215.05-.325-.555-.348-.193-.534-.417-.166-.235-.206-.072-.495-.462-.5-.326-.375-.483.029-.16.361-.218.158-.236.111-.3.3-.083.28-.223.103-.178-.03-.22-.267-.115-.54.058-.383-.304-.709.068-.337-1.076-1.658.722-.284-.148.092-.576-.29-.779-.393.265-1.757-.447-.726-.238-.233-.614-.008-.292-.613-.628-.497-1.687-.543-1.515-.164-.704-.102-.24-.417-.821-.185-.614-.045-.757-.238-.457-.255-.487-.42-.373-.092-1.396-2.256-1.246z" fill="navy"/><path d="M142.055 97.92l-1.12 1.159-.345 4.336-1.192 1.556-1.8 1.007-1.76 1.114-1.426.764-1.172.27-3.063.482-.595-.769-2.7-.394-.64-.85-2.563-.69-.69.24-2.305-1.116-1.391.614-.56.769-.931.331-.507.534.717 1.331-.418.89-1.505.525-.69 1.002-2.944 1.435-2.065.03-4.34 3.264-1.304 1.007-.52.362-1.858.616-.75-.912-3.851-1.524-.9.767-.638 1.718-.934.138-1.358-.138-1.519.5-.46 1.09 1.703.658-.985.974-1.802.123-.474.516-.725-.07-.437-1.227-1.24.723-1.133-.796-2.257 1.021-1.022.737-1.323 1.044-2.384.818-.537-.333.224-2.38-2.971 1.43.021 1.661-.552.677-1.96.284-1.119 1.2-.383.806.793 1.768-2.372 1.83-1.19 1.716-1.171.241-.63 1.746-1.622 1.245-.753.18-.25-.139-2.236 1.17-.277-.568-.384-.553-.434-.334-.1-.233-.083-.987-.141-.271-.243-.18-.1-.267.034-.184-.084-.15-.217-.218-.158-.24-.326-.73.017-.334-.122-.287-.484-.394-.523-.572-.257-.267-.116-.352-.129-.735-.122-.368-.577-.591-.49-.279-.273-.334-.028-.567-.216-.837.018-.792-.053-.294-.116-.217-.602-.736-.349-.034-.684.1-.307-.184-.344-.684-.334-.318-.139-.306.295-.788.012-.544-.137-.38-.815-.757-.66-.805-.085.078.127.463-.169.252-.259-.175-.308-.105-.926.19-.413-.1-1.087-.59-.103.16-.057.815.058.505-.1.087-.009.134-.311.146-.303.266-1.05.369-.17.08.08 1.159.05.126.221.289.34 1.14.038.097.741.082.002.012.014.002.113.81.32.095.286-.016.629.281.004.008.012.004.021.052.418.709-.018.284.053.13 1.003 1.006.79-.046.004.015h.012l.01.096.165.721-.113.206-.323 1.475-.045.044-.007.059-.268.397-.646.47-.086.087-.332.785-.785.485v.82l-.926 1.663.557 1.839-1.199 1.608-.133.99.439 1.182.983.612 1.283-.085.026.019.895.435.04.008 1.157.09.347.226.137.03.234-.047.416-.193.46.004-.015.018.03-.006-.575.751.133.616-.72 1.237.569.703.022.89-.69.38-.486 1.497.232.535 1.008.48.269-.567.781-.135.952-1.154.152-.089.125-.143.06.036.064-.037.23.209v.002l.017.01-.18.528.6.503v.002l.015.012.45.787.364.989.406.016.011.015h.005l.733.949.232 1.118.787.56.584-.101.003.014.014-.002.166.986.716.52-.002.001.016.012-.598.387-.21.581.49.866 1.007.414v.007l.015.007-.084 1.37.5 1.353.319.276.785.681v.002l.014.013.118.95.686.524.123.359.91.992-.199.385.876 1.313.308-.038.952-.35.531-.326.104-.228.117-.303.932-.486.352.085.002.019.012-.004.051.546.026.018 1.742.907.031.012.637-.358-.01-1.062.847-.563.166-.452.235-.09.037-.053.071.01.175-.067.475.163.509-.189.2-.092.008.016.008-.003.224.47.078-.018.56-.282.366-.39.832-1.2.277-.615.301-.233 1.15.233.008.014h.01l.667.688 1.001-.451.601.218.005.01.012.004.324.605.559.049.628.427.261.103.652-.27.095-.06.417-.734.584.183 1.402-1.002.584-.936.117-.017.556-.169.278-.216.493-.019.328-.1-.068-.542-.068-.442.25-.368.567-.17.005-.003.429-.384.15-.16.098.018.724.055.33-.057.164.13 1 .355.071.016.5-.456-.25-1.249.333-.852h.144l.896-.082.513-.225.055.173.018-.001.388 1.256 1.624.25.684-.235 1.087.155.983-.472.584.167.006.01.008.002.8 1.438.871.07.7.535v.004l.014.01-.066 1.153.74.918.85-.038.916-1.294.917.184 2.182 1.876.901-.953.072.03 1.538.427.58.074.335.351.834-.435.267-.55-.45-.837.013-.135-.042-.092.063-.112.048-.464.377-.405.029-1.566-.01-.297.766-.525.886-1.449 2.224-.12.457.1.679-.01.516-.107.406.096.458-.006.488-.855.233-.45.668.062-.016-.736.383-.518-.222-.62 1.047-.973-.6-1.512-.026-1.174.403-.552.192-1.334.183-.02 1.354-.276.539-.191 1.702-.284.885-.753.232-1.07.668-.518.5.133.586-.266.567-1.004-.351-1.204.218-.273.756-1.067-.08-.26-.644-.959-.013-.036-.188-.18-.206-1.035-.399-1.23-.158-.449-.757-.144-.008-.015h-.005l-.361-.675-.409-.083-.005-.01-.01-.002-.465-1.113-.046-.02-.857-.27-.386-.306h-.002l-.013-.012.316-.168-.05-.368.261-.119.531-.53.193-.32.568-.284.434-.936.998-.892 1.297.542 2.56-.62.535-.469.05-.818.533-.485-.1-.836 1.352-.35.25-.585.968.116-.005-.082-.221-1.244-.025-.06.4-.536.751.25 1.753-1.236.06-.39.12-1.097.02-.318-.423-.621-.514.15-.694-.384.002-.004-.016-.009.853-1.44 1.006.076 1.138-.743 1.166-1.49.986.101.649-.327.002-3.482 2.941-.1 1.98-2.735-3.06-1.636-1.149-3.238.891-3.48.114-1.884-.6-.468z" fill="teal"/><path d="M13.235 121.68l-.082.479 1.318.615-.124.607.798.32.07-.695.235-.516-1.865-.992zm-3.103 3.809l-.153.253-.048 1.045.073.32-.089.012v.006l-.814.449-.182.196-.076.963 1.074 1.464.224.85-.097.063-.53.504-.627.248-.077.05-.014-.014-.672-.706-1.147.435-.014-.014H6.96l-.368-.352-1.07 1.101-.797-.52-.435.29-.057.023-1.145 1.058-.035.004-.081.101-.722-.014-.098.01-.117.337-.564-.02-.476.865-.033.067-.009.293-.383.512-.048.098 1.114.493.751.686v.002l.016.01-.151.953-.025-.007-.106.061-.319-.182-.015-.005-.021.046-.028.325-.395.633-.407.799-.285.603.185.384-.044.035-.156.27-.56.302-.078.062.209.303 1.149-.434.352-.753.697-.015.259.086 1.395.09.073-.008.072.061.593.498.812-.527.284-.685 1.134.185.717-.202.334-.05.006.016.01-.003.245.658 2.025.184.932-.548 1.72-.932.795-.66-.152-1 .323-.138.647-.441.29-.396.28-.146.686-.712.044-.073.974-.37.046.005.799-.176.309-.199.39-.096 1.73-.995.38-.798.578-1.677.025-.129-.204-.268-.788.188.004-.016-.02.005.045-.096.158-.597.004-.074-.42-.046-.08.081-.534.757-.636.414-.066.066-.013-.014h-.003l-.366-.099.047-.261-.329-.368-.452-.34-.093-.324-.586-.958-.025-.027.42-.53.242-.111.363-.367.062-.09-.23-.958-.56.007.027.312-.442.765-.4.287-.714 1.163-.413.519-.617.116-.299.538-.128 1.021.083.59-1.296 2.217-1.07.624-.364-.215.086-.085.31-.322-.01-.356-.01-.431-.218-.463.105-.555.128-1.055-.008-.42.293-.371.226-.513.28-.148.196-.596.132-.513-.202-.526.189-1.13-1.78-.795-.92-1.195z" fill="red"/><path d="M100.385 43.99l-.8.36-.553.327-.091.04-2.096.119-.335.07-1.548.332.25.355.603.703.124 1.097.013.482 1.148.933.197.414 1.139-.059-.013.657.488.918.041.078-.111.699.855.061.698.849-.197.533.143 1.046-.048.318-1.133.505-.008.918-.449.211-1.312-.34-.152-.113-.833.15-.849.096-.225.344-.647-1.424-.916-.305-1.15.415-.912.2-.064.188.444.654-.842 1.308-.59 1.058-.719.483-.711.3-.278.113-.789.333.363 1.109.345.469-.167.562-.24.355-.685.21-.647.137-.057.661-.458.999.706.623.09.113-.51.917-.397.267-1.256-.008-.1.503-.364.472-.58.136-1.998.192-.958-.017-1.614.655.009.525-1.18.318-.246 1.052-.434-.045-.121 1.031-.762.376-.302-.33.136-.302-.065-.422-.407-.237-.391-.658-.372-.405-.689.635.08.851-.466.502-1.638.9-.022.226.482-.015.323 1.04-.228.895.414.957-.348.455-.108.76-.9 1.03.444.119 1.277.14.358-.437.384-.109.535.49.99-.018 1.4.74 3.099-.432.4.584.669-.11.072.476.263 1.716-1.22 1.144-1.255-1.099-.823.884 1.589 1.436-.569.834-.005.85-1.012 1.8.063.41-.745 1.422.295.543.485 1.385-.244 2.242 2.868.873-.212 1.113.218.082 1.766.659-.188 1.096-.029.249.049 1.527-1.421.778-.428-.713-.882.004-.031 1.142-.956.426.428 3.774-1.245 1.044-1.041-.398-1.189 1.864-1.402.803.536 1.993.178.66-.528 1.032-.936 1.834.09.522.386 2.257-.579 1.003-1.592.204.924 2.169-1.027 2.939.84.975.133.682.169.87.359 1.846 1.96-.284.553-.676-.022-1.66 2.971-1.432-.224 2.38.537.334 2.385-.818 1.323-1.044 1.021-.738 2.257-1.02 1.134.795 1.24-.723.437 1.227.724.07.474-.515 1.802-.124.986-.974-1.704-.658.46-1.089 1.52-.5 1.358.137.934-.137.637-1.718.9-.767 3.851 1.523.75.912 1.858-.616.52-.361 1.304-1.008 4.34-3.263 2.066-.03 2.943-1.436.69-1.002 1.505-.524.418-.89-.716-1.332.506-.533.932-.332.56-.769 1.39-.614 2.306 1.117.689-.24 2.564.69.639.85 2.7.394.595.769 3.063-.482 1.172-.27 1.426-.765 1.76-1.113 1.8-1.007 1.192-1.556.346-4.337 1.12-1.159 1.335-.668-.879-1.632.012-1.542 1.625.566 1.377-.227.085-1.876-.897-3.487.523-.944-.112-.57-1.699-.242-1.192.672-.474-.985-1.138-.888-2.75 1.104-2.275 1.727-2.458-1.198-.982.732-1.866-.763-1.282.7-1.221.589-1.426-1.258-1.135-.282-.772-1.05h-1.202l-1.234-.045-1.518-.154-2.078 1.204-1.31-1.032-.468-.369-.034-.214-.152-.45-1.643-1.392-1.394-1.182-1.666-1.413-.665-3.201.83-.378.572-1.426-.921-.687.32-.797 2.44-.895 1.743-3.006.378-.937.017-2.154-.68.11-1.246-.38-1.024.34-.557-2.013-1.394-1.664.622-2.435-.388-.159.146-.787-.468-2.24.37-.641.712-.357-.236-1.597-.306-1.539.228-.886-1.245-1.94-.134.1-.623-1.645-.465-.443.016-.986-.633-1.6-.163-1-.598.362-.514-.272-.015-.2-.107-.137-.23.107-.816.91-1.005-1.135-.619 1.013-1.068-.153-3.069-2.854zm.015 11.543l.29-.763.703-.227.507.335-.591.758zM74.067 74.611l.054-.397.73-.63.282.169-.045.523-.003.194-.901.42z" fill="#0f0"/><path d="M129.825 16.41l-.484.964-1.438.958-.642-.174-.674.343.033.566-.102.011-.507.134-.638-.006-.103.012-.881 1.887-.69.27-1.445-.465-.77.704-1.391.43-.775-.362-3.002-.17-.841 1.046-1.286-.193-.011-.013h-.005l-.534-.657.127-1.297-.74-1.144-.757-.402-1.35.066-.098.034-.585.336-.572.06-.063.021-.517-.403-.701.1-.336 1.304-.815 1.16-2.128.706-.32.344-2.227.464 1.14.692.862.524 2.282.553.166 1.253-.15.335.073.292.47-.245.499.142 1.394-1.493.07-1.605 1.086-.126.633.982.754.07-.05.8 1.052.626.072.291.538.847.012.613 2.341-.065-.314 1.974.606-.187.348.756-.568 1.018.873 1.797-.29.252-.917.41-.218.513-1.54.817-1.215-.735-.501.474-.6.523.562 1-2.244.808-.335.562-1.565.439-.723 1.921-.324.114-.735.705-1.68.79-.885.995-2.573 1.27 3.069 2.855 1.068.153.619-1.014 1.004 1.136.816-.91.23-.107.108.138.015.2.513.27.598-.361.163 1 .634 1.6 3.2-.686 1.581.402.644.152 1.59-1.577-.637-1.703 2.7-.44.423.72.519.76.121 1.504 2.71-.225-.384-.46.01-.285.915.03.888-.669.684.303.35.872.167.362.88.258.314-.176.736-.328 1.83-.535.273.228.03.436-1.37.527.622.638.391.525.157.303 1.592-.357.205-1.812.68-.412-.376-.978-.05-.367-.167-.2-.14-.655-.044-.199-.328-1.477-.16-.898.094-.578.145-.089-.05-.177.153-.027.23.144.322.414.135.27.301 1.362.39 1.253.053.171-.04.286.802.03.923-1.247 2.255 1.246.093 1.396.42.373.255.488.237.456.045.757.186.614.416.82.102.242.164.703.543 1.515.497 1.687.614.628.008.293.232.613.727.238 1.757.448.393-.266.2-.27-.033-.385-.15-.451.084-.238.008-.07.092-.328-.067-.434-.217-.685-.35-.068-.2-.183-.098-.5.063-.47.268-.45-.36-1.238-.008-.552-.219-.363-.081-.456.117-.335.567-.718.033-.368.201-.251-.033-.2-.05-.075-.317-.41-.104-.213.152-.218-.015-.237-.172-.115-.079-.203.018-.27.068-.267-.02-.164-.198-.185-.178-.247-.255-.67-.174-.298 1.487-.301.784-.657.43-1.195.285-.055.57-.915-.097-.553-.968.587-1.157-.17.21-.723-.566-1.24-.11-1.032.177-.218-.45-.32-.054-.36-.193-1.606-1.945-.357-.017-.33 1.155-.16.253-2.012-.34-.055.13-.505-.285-.927.525-.394-1.302-1.385.534-.372-.127-.866-.575.054-.14-2.456.902-.208.53-1.395.312.101.27.05.327-.534-.184-.53 1.014-.525.046-1.334.397-.536-.14-.07-.62-.276-.685-.366-.103-.05-.476.199-.2.687-.045-.004-.304.091-.562-.172-1.888-.177-.774-.198-1.09-1.044-.415-.33-.032-.098-.033-.032.004-.055-.066-.2.137-1.024-.526-.344-1.213-.022-1.59-.226-.881.562-.005-.02-.01.006-.207-.755-.663-.354zm5.258 10.97l.35.083.35-.05.384.267.443-.031.259.082.05.166-.234.368-.014.351-.137.402.102.474-.148 1.25-1.56-.167-.626-1.738-.172-.991.186-.397.232.114.301.017z" fill="#00f"/><path d="M150.495 1.36l.72.344.004.01.01.004.236.48-.617.329-.759-.536-1.43.51-.37.455-.62-.237-.073.01-.688.278-.556-.108-.028.004-.985 1.02-.051.735-.683.37-.017.041-.016.48-.347.364-.021.049.493.758-.11.565-.65-.037-1.069 1.004-.516.082-.734 1.072 1.07 1.16-.816.654.35.81.815.322 1.009.775.26-.134.768.317.001.006.013.006.049.663.62.523.334-.518.8.066.084-.484 1.966.312.093-.405-.28-.957.817.22.287-.91.957-.224.009.015h.006l.79.69.879-.445.253-.516.455.06.443-.581.57.033.053-1.14.41-.051.691-.16.83.515.21-.19.758-.681-.755-1.12.485-.363.828.586.667-.533 1.146 2-.932-.105-.65-.265-1.161.904-.062.616.546.985.634 1.342 1.652.659.836-.037.88.26.997-.874 1.881-1.39.255-.022.12 1.086.616.193.623.239-.048.824-1.165 2.473-.336.347-.592-.461-2.2-.956-.549 1.135.517 1.314.785-.055 2.056.624.726 1.186 1.612-.055.7.62-1.179.887.678 1.73 1.524.161.356.076.774.087.629.331-.163 1.815.168 1.483-.69.296-.08.965.618.58.577 1.673 1.585.546-.025.395-1.05.04-.268 2.297.005.287 1.992 1.113.143.965 1.738 2.465.722 2.247 2.055 1.755 1.593.978-.3 1.63.654.568 1.2.842.68.452.985.719.206 2.052.528.991.526 1.104-.704 2.158-1.143.707-1.213 1.9-1.021-.961-2.477-2.514-.193-.087-1.936 2.895-.154.23.121.178.18 1.379.007.256-.063.95-.95 1.061.428 1.275-.683 2.278-1.338.86-1.36.5-.32 1.092.903.31.956 1.48 1.382 2.488 1.276.781-.912 1.784.484.89-1.597.74.712 1.058.36.534.014.156.176 1.98-4.842 2.897.61 1.064-.198 1.26 1.196-.01.961.244.8 1.225 1.625-.835 3.01-.494 1.436-2.044.569-2.553.441-.564.71-.274 1.7.303.984 1.7 1.306-.87.257-.355.569-.999.408-.493 2.295-.007.953-.908.82-1.315 1.207-.78.999.674 1.587-.108 2.794.58 1.92.228 2.278.058 1.675 1.553.234.218.727-.913.42-.451-.064-.77.72-.867.914-2.952.148-.753 1.092-.199.27-1.431 1.241-.377-2.105-2.773-1.122-1.943-.388-.56-.47-.724-.086-.219-.225-.918.417-.502.684-.485 1.17-.97.037-.1.297-1.446-.002-.075-.189-.913-.03-.145-.12-.548-.224-.9-.165-.391-.316-.67-.456-.814-.485-1.464-.007-1.346.132-.66.084-.184.461-1.321.063-.394.1-.313.504-.905.47-.94.193-.568.204-.66.065-.27-.017-.523.166-.33.364-.292.282-.248.156-.161.08-.192.09-.28.164-.665.133-.317.484-.435.29-.219.773-.677.15-.223.222-.519.002-.008.416-1.831.25-.434 1.134-1.475 1.892-.307.823-.948.036-.937-.544-.457-.75-.628-.052-1.004-.015-.096-.38-1.348-.036-.087.36-.683.463-.528-.185-.396-1.925-.257-.008-.014h-.008l-.355-.463-.276-.584-.304.445-.004.038-.097.11-.084.125-.48-.203-.004-.008-.01-.005-.61-1.29-1.102-1.02-.276-.669-.378.213-.644 1.127-.708.315-1.063.19-.802.031-.873-.174-.332-.635-.594-.573-.97-.396-.788-.418.001-.46.201-.239-.133-.35-.701-.218-.488-.47-.655-.63-1.094-.748-.224-.593-.154-.406.163-1.01-.093-.252-1.451-.767-1.478-.848-1.038-.805-.798-.796-1.102-.553-.95-.491-1-.618-1.564-.637-.811-.411-.836-.291-.29-.344-.554-.322-.2-.006-.569-.34-.152-.193-.2-.253h-.52l-.55.248-.7-.259-.541.086-1.152-.016-.251-.185-.11-.394-.448-.118-.163.32-.318-.016-.183-.273-.28.014-.913-.045-.322.165-1.299-.213-.321.056-.59.275-1.22.213-.598.418-.094.362-.567.355-.68.163-.98.27-.369.387-.472-.055-.574.314-.65.05-.679-.475-1.17-.395-.18-.184.043-.065.028-.044.233.007.588.163-.453-1.634-.923-.411v-.006l-.016-.007.062-1.147 1.302.028-.193-.932-1.374.178v-.013l-.013.001-.04-.655-1.072-.248.001-.01-.015-.002.033-.517-.553.144-.012-.012h-.001l-.407-.394-.225-1.243-.679.375.156.62-.816-.062-.046.04-.237.415-.49.208-.045.038-.032 1.087 1.356.205.006.012h.01l.714.902-.487.266-.431 1.223-3.501-1.378.002-.011-.016-.002.442-1.98-.365-.257-.668-.156-.003-.01-.012-.003-.3-.914.533-.919.952-.1.2-.582-.444-.275-.003-.005-.011-.007-.371-.633-.816-.242-.775.514-.73.029-.001-.014h-.013l-.062-1.297-.328-.99-.618-.041-.47-.394v-.003l-.013-.011-.176-.719-.518.196-.246.883.383 1.152-.34.792-.645.41-.822-.614v-.001l-.016-.012.21-.677-.333-.374.236-1.245-.975-.676-.078.023-.468.25-.133-.076-.023.007-.972.13-.004-.02-.013.005-.108-.55-.572-.127z" fill="#ff8080"/><path d="M62.161 26.1l-1.277.69.004.059.188.726-.107.55.004.066.368.919.524-.02v.014h.015l-.01.06.019.321-.248.913-.034.183-1.456.21-.38.946-1.346.204-.114 2.294-1.476-.026.034.67-.35.199-.13 1.133-.587.138-.652.653-.267 1.608 1.529-.445.81.325.781-.239.633-.052 2.734-.297.44-.064.679-.792 1.25.419.003.01.011.004.124.463.586.098-.002.009.015.003-.296.975 1.168.465-.002.005.016.006-.31.812-.61.41-1.865.238-.269.399.398.62-.535.957-.678.528-.97.067-.332.303-.6-.084-.83.19-.392.403.653 1.464-.299 1.403.302.626-.556.844-.782.437-2.294 2.035-.494.403-.384.688-.066.584-.299-.016-.269.352-1.383.683.309.522.754.09-.01.013.024.003-.594.81-.284.033-.317.25-.028.024-.086.231-.411.198-.058.05-.866.886-.251.035-.034.024-.133.311-.419.09-.034.024-.088.05-.218.187-.655.3-.204.114-.837.17-.952.85-.332.085.317.701-.033.517-.579.391-1.183.113-.705.4.022.228.005.018.122.192-.015.217.013.049-.199.365-.59.248.533.83 1.03.494-.004.004.02.01-1.192 1.105-1.268.103-1.35.916-.984 1.906-1.118.768-.819-.099-1.902 1.064-3.8 1.39-.01-.017-.004.001-.465-.695-1.527 1.419-1.036 1.47-1.158.884 1.718 3.037-.02.324-.017 1.127-.144 1.524-.032.519 1.252.415 1.79-.693.827-.306 2.07-1.397.44-.271.947-.432.937-.184 1.067-.179.51-.243.893-1.22.985-.95 3.384-1.53.152.432-.415 2.094 1.311 1.168-.1.667.123.04-.043.406-.181.654 1.177.084.067-.35.186-.305.264-.55.318-.417.467-.25.258-.288 1.285-1.574 1.483-.958.34.09.144-.134-.01-.445.427-.5.802-.21.607-.377.02-.485.219-.425-.066-1.148.632-.517.574-.26.744-.074.333-.234.1-.167.601-.334.25.066.334-.194.685-.24.1-.217.376-.004.24-.23.034-.234.495-.42.652-.438.405.105.345.195.205.32.807.18.178-.16h.267l.151.184.233-.267.266-.083.605.639.527.979-.302.232-.211.222-.267.083.15.15.584.051 1.885.301.4-.135.285.05 2.55-.602.5-.12.412-.106.357-.096.643-.337.434-.222.5-.266.72-.375.898-.227.424.889.369.274.69-.634.37.404.392.658.407.237.064.422-.135.303.302.33.762-.376.121-1.032.434.045.245-1.052 1.18-.317-.008-.525 1.614-.656.957.017 2-.191.578-.137.364-.472.101-.503 1.256.008.397-.267.51-.917-.09-.112-.706-.624.458-.998.056-.662.647-.136.685-.21.241-.355.167-.563-.345-.469-.363-1.109.788-.333.278-.113.712-.3.719-.483.59-1.057.842-1.308-.445-.654.065-.188.911-.2 1.15-.416.917.305.647 1.424.225-.343.85-.096.832-.15.151.111 1.313.342.449-.211.008-.919 1.133-.504.047-.319-.142-1.046.197-.533-.699-.848-.854-.062.111-.698-.041-.078-.489-.919.013-.656-1.138.058-.197-.414-1.149-.932-.012-.482-.124-1.097-.603-.704-.25-.354 1.548-.332.334-.07 2.096-.12.092-.04.552-.327.8-.36.576-.25 2.573-1.27.885-.997 1.68-.789.736-.705-2.077-.502-1.298-1.897-1.635-.45-.73.093-2.478.343-.367 1.119-3.45 1.782-.34.27-1.1-1.308-.88-.41.158-.839-1.188-1.008-1.4.119-.387.087-1.66-.125-.28-.192-1.002-.395.07-.233-1.464.024.111-.748-.016-.434-2.04-1.245-.098-.403-.73-.047-.337-.024.13-.464-1.9-.98.083-.68-1.435.08-.516.451-.686-.214-.08.044-.669.593-1.2.441-.101.056-.007-.016-.009.003-.53-1.327-.823-.196-1.07.364-1.847-.523.005-.01-.018-.006.478-1.11v-.675l.918-1.799.467-.334-.146-.455-.19.03-.965.224-.944.079-.202.032-.01-.015h-.005l-.337-.49-1.463-.636-.889.76-.926-.133-1.198.702-.013-.014-.002.002-.523-.557-1.608-.229-.893-.587z" fill="#ff0"/><path d="M204.015 62.68l-.004-.017-.009.003.085.218.471.724.388.56 1.122 1.944 2.105 2.773-1.241.376-.27 1.432-1.092.199-.148.752-.913 2.953-.721.867.064.769-.42.451-.727.914-.234-.219-1.675-1.552-2.278-.059-1.92-.227-2.794-.58-1.587.107-1-.674-1.205.78-.821 1.316-.953.907-2.295.007-.408.494-.57.998-.256.356-1.306.87-.984-1.7-1.7-.304-.71.275-.441.563-.569 2.553-1.437 2.045-3.01.494-1.625.835-.799-1.225-.96-.244-1.197.01-1.767 1.62-1.02.192-.088.629.408 1.535-.833.323-.314 2.262-1.78.789-.834-1.49-1.167.891-.238 1.719-1.949 1.422-.954-.223-1.142.84.085 1.285.306 1.054-1.366 1.226-.162 1.217 1.599 1.629.019 3.01 1.25.577 2.957-.307 2.018.675 2.695.291 4.143-1.787.777-.844-.64-1.928.919-.527 1.147.312.871-.932.39.987-.096 1.301.632-.012 1.876-.74 1.67.9.591 1.384-.974 1.513-.516 2.84.218.342.195 1.559 1.015 1.307-.066.178.233.788.673.44 1.414-.135.995 1.473-.489 1.972 1.049 2-.889 2.059.471 1.274-.167 1.743-1.135.812-.335.944.025.714.56.774-.602.983-.56.867.5 1.418.867 1.137-.065.632-.166 1.634 1.02 1.938 1.774.977 1.219 1.797 1.192.74.43-.047h.343l.656.092.584-.838.402-2.429.833-.143.384-.385.1-1.22.667-.369.7.084.201-1.37.217-1.655.234-.936.55-.367.801-1.338-.044-1.45.59-.299.256-.758-.36-.748.26-.622-.176-1.051-.933-.277-.002-.009-.014-.004-.245-.708.03-.325-.071-.325.118-.19.003-.033.19-.275.13-.209-.433-.84-.06-.097.46-.756-.31-1.019-1.704-1.232v-.003l-.014-.01-.187-1.31.986-.332.613-.508.145-.353-.134-.431-.028-.051.25-1.184-.27-.222v-.002l-.014-.012.37-.942.583-.082 1.094-.79 2.408-.175.57-.36.648.452.017.013-.318.72 1.33 1.845 1.283.487.893-.767-.1-1.12.534-.719.937-.593.497-.193.003.02.011-.006.17 1.324-1.021.266.083.852.905-.032v.014h.014l.082 1.053-.432.385.019 3.432.91 2.582-.446.454.03.654 1.94.862.003.01.01.004 2.173 4.286 1.041 1.068.508-.42 1.322.945 1.53-.076.942.612 1.26-.026 1.948-1.365.01.015.003-.002.637.79 1.607-.12.085-.976.599-.472.088-.878-.601-.114.005-.008-.019-.004.514-.928-.3-.667.79-.86 1.979 1.279.826-.532 1.58-.463 1.119-1.286 2.552-.188.62-1.077 1.171-.585.01.015.004-.002.807 1.315.944-.1-.234-.619 1.052-.368.01.013.002-.001 1.596 2.027h.994v.012h.013l.02.739-.7.735-.27 1.033 1.154.825.015.012.085.985-.469.454.413 1.048 1.987.42 1.553.777v.006l.016.007.306 1.562-1.02 1.64 1.685.943.847-.909.897.172 1.618.117.376-.04 1.036-1.31.082-.134.076-.07 1.074-1.415.041-.084-.13-.797-.579-.396-.002-.005-.013-.008-.582-1.85-.043-.03-.76-.444-.058-.126-1.503-1.049-.002-.006-.014-.008-.524-1.452.249-1.587 1.119-.786-.36-1.403 1.027-.686.584.384.7-.752-.248-1.154.333-.3-.46-.954-.592.247-.007-.017-.01.004-.515-1.2-.653-.324-1.487.45-.25.55-1.019.086-.006-.013h-.007l-.277-.57-1.174.055-.002-.014h-.01l-.154-1.128-.976.07-.004-.014h-.013l-.114-.458.637-1.67-.523-.894.373-1.344-.418-1.12.601-.518.1-1.455-.758-.957 1.176-.43 1.285-1.605-.318-.685.819-.167.05-.096.255-.814-.049-.51-.174-.67.066-.45-.02-.205.049.01.018-.128 1.473.406 3.22-1.705.106-.016.132-.07.116.031.18-.028 1.569.484.3-1.003.334-.3.35-.25.007.016.006-.005.959 1.612.215.246-.673 1.484-.096.255.167 1.18.587.534.87-.568.728.576.761.895.022.022-.19.598 1.36.608.645-.64.762.735.796-.345.116-.686.16.017.011-.029.126.043.521.053 1.3.56.286.096 1.052-.344.182-.078 1.986 1.604.105-.087.543-.606.07-.226.633-.217.334-1.254-.2-.919.077-.144.513-1.251.06-.307-.157-.945-.076-.379.4-1.05-2.722-2.163-1.353.381-.241.015-.878.116-.306-.042-.05.003-.005-.011-.013-.001-.032-.134-.383-1.147-.064-.122-.114-1.492-.593-.955.78-.518.284-1.22.783-.267.185-.939-.955-1.013-.144-.153-.014-.014 2.38-1.627.167-.819-.012-.04-1.169-2.284-.037-.059 1.54-1.182.48-1.232-.134-.97.484-.501.217-1.388-.267-.601.083-1.153-.5-1.237.55-.77.084-1.119.467-.535.167-.919-.25-.485.363-.53-.045-.02-.952-.286-.569-.408-1.333-.719-1.097-.397.118-1.206-.145-.164-1.564-1.745-1.051-.063-.6.703h-1.103L253.3 68.28l-.02 1.082-.998.237-.266 1.02.675 1.196-1.36.3-2.022-.562-.89.078-.253 1.007-.124.98-.258.536-.117.462.344.816.007 1.211-2.213.319-.337.258-.473.4-.721.51-.453.346-.974-.057-.041.013-.284.235-.525.016-.08.024-1.167.574-.008-.017-.006.003-.459-.583-.338-1.062h-2.105l-.001-.013h-.016l-.116-1.137-1.267-1.187-.99-.924-.675.254-1.043-.296-.003-.009-.012-.003-.344-1.013-2.238.26-.042-.02-.723-.221-.718-.469-1.545-.764-.764-.372v-.006l-.016-.008v-1.71l-.395-.518 1.146-1.987-.066-1.18-1.189-.728.004-.003-.017-.01.618-.536-.114-.489-1.306-.045-.387.345-.448.162-.474.29-.114-.078-.08.029-2.672-1.917-.168-.115-1.815.11-.013-.014h-.001l-.373-.4-1.897-.258-.004-.013-.011-.002-.198-.683-1.059.066-.573-.552-.297.03-.612.224-.892-.052-.86.675-.785-.073-.007-.015h-.007l-.263-.572-.726-.2-.235.121-.666.405-1.297.613-.389.2-.003-.015-.01.005-.2-.854-.807-.505z" fill="#f60"/><path d="M99.785 18.59l-1.125-.369-.144.18-.375.567-.523.558-.138.173-.06.007-.397.165-.61-.046-.058.006-.003-.01-.013-.002-.002-.06-.196-.764-.01-.015-.676-.157-.239 1.203-1.051-.172-.531.347-.003.017.12.286-.25.421-.011.056-1.476.857-.091.06-.54.497-.674.305-.093.061-.41.396.237.726.455.016.366-.28.865.504v.002l.016.01-.413.987-.484-.24-.465.2-.01-.016-.004.001-.385-.528-.355.26.18.445.49.376.258.55.021.026-1.32 1.718-.943.118-.01-.011H88.7l-.446-.535-1.68-.836-.706 1.405.59.056 1.383.757-.005.006.02.009-.563.73-.893.194-.527 1.16-2.268 1.166-1.955-.314-.516-.417-.601.033-.083.681 1.9.98-.13.463.336.025.731.047.098.403 2.04 1.245.016.433-.111.749 1.464-.024-.07.232 1.001.396.28.192 1.661.125.387-.087 1.4-.12 1.188 1.009-.157.838.88.41 1.099 1.309.34-.27 3.45-1.783.367-1.118 2.478-.343.73-.093 1.634.45 1.299 1.896 2.076.503.325-.114.722-1.921 1.565-.439.335-.562 2.244-.807-.562-1.001.6-.523.501-.474 1.215.735 1.54-.817.218-.514.917-.409.29-.252-.873-1.797.568-1.018-.347-.756-.607.187.314-1.974-2.341.065-.012-.613-.538-.847-.071-.29-1.054-.627.051-.8-.754-.07-.633-.982-1.086.125-.07 1.606-1.394 1.493-.5-.142-.469.245-.072-.292.15-.335-.167-1.253-2.282-.554-.863-.523-1.138-.692h-.005l-1.576.595-.597-.08-.012-.012h-.004l-1.722-1.565-.723-.78.08.008 1.83-.178.062-.022.45.117.15-.316.2-.051.384.2.167-.685-.02-.025-.983-1.062.001-.001-.016-.013.923-.89-.532-.463z" fill="purple"/><g fill="olive"><path d="M42.12 75.27l-.984.952-.893 1.219-.511.243-1.066.179-.938.184-.947.432-.44.27-2.07 1.398-.826.306-1.79.693-1.252-.415-.001.007-1.062 1.386-.27 1.469-.387.403.207.914 1.158 1.21-.074.133-.499 1.25-.349.274-.026.047-.062.058-.249.38-.83.623-.142.132-1.033.092-.715.669.166.384-.502.488-.9.214-.35.701-.551.32-2.545 1.567-1.802.953-.442.256-.1.433L17.14 96.8l-.184.188-.781.934-2.286 2.206-.437.447-1.15.62-2.468 2.406.548.555 1.77 1.79.152.157.167.169-2.607 2.941-.955 2.394-1.405 1.316-.126.974.708 1.216-1.194 1.934.004.004 1.71.689.076.024.01.01.006.003.772.906.525.055.015.013h.001l1.299 1.179.512.464.51-.175.008.018.01-.003.652 1.152-.6.536-.096.698-1.106 1.108-.042.068-.008.18-.455.83-.428.497.92 1.199 1.78.794.316-.203.343-.472.316-.497.483-.52.323-.751.399-1.144-.798-.32.125-.608-1.319-.614.082-.48.35-.182 1.866.993.85-1.092.386-.394.876-1.248.63-.535.267-.013.616.225.222-.43.29-.168-.028-.673.484-.703.07-.751.358-.217.582-.345.125-.22.407-.503.225-.413.812-.604.35-.527.42-.351.279-.001 1.559-.28.371.03.382.326.459.157.483-.12.12-.21.67-.489.857-.143.75-.26.392-.407.295.077.102-.085.024-.54.533-.47.455.015.175-.197.278-.71.543-.175.518-.813.357-.212.709.14.812.604 1.241.021.869-.49.343-.324.41-.04.32-.01.547.441 1.074.367.708.202.55.156 1.276-.049.19.098.511.057.785.26.75.393.603.52.462.336h.518l.35-.246h.4l.462.246.464.534 1.03.518.574.05.716.204.84.161 1.094.169.147.527.287.197.715.167.343.583.358.168.785.154.07.352.834.267.448-.098.407.414.014.379.196.19.316-.063.224.252.136.399.433 1.081-.359.528-.091.372-.267.204-1.065-.078-.35.162-.365-.148-.63.043-.519.11-.455-.153-.092.077.66.806.816.758.136.379-.011.544-.295.788.139.306.334.317.344.685.306.185.685-.101.348.034.603.735.116.217.053.294-.018.793.216.837.028.567.273.334.49.278.577.592.122.367.13.736.115.352.257.267.522.571.484.395.123.287-.017.333.326.73.158.24.217.219.084.15-.034.184.1.267.243.18.14.27.084.988.1.233.434.334.384.552.277.568 2.236-1.17.25.14.753-.18 1.621-1.245.63-1.746 1.172-.24 1.19-1.717 2.371-1.83-.792-1.768.383-.805 1.118-1.202-.359-1.846-.169-.87-.133-.682-.84-.975 1.027-2.939-.924-2.168 1.593-.205.579-1.002-.387-2.258-.09-.521.937-1.835.528-1.031-.178-.661-.536-1.993-.94.616-.513.867-.95.362-.347-.937-1.071.74-1.541 1.014-.405 1.27-1.595.9-.368.704h-2.402l-1.36.959-.497.9-.479.867-.3.542-1.965.779-.225-2.201.3-.884-.968-1.202-.14-.295-.228-.31.175-.346-.32-.117-.369-.134-1.08-.523-1.311-.35-.447.581-.48-.13.128-1.02-.536-.238-.404.845-1.375 1.62-.581-.042-.479-1.035-.41.068-.147-.626-.328.028-.69-1.173.674-1.272.481.295 1.085-.289.273.03.05.384.184.05-.085.351.151.1.133.067.168-.402-.067-.166.127-.354.081-.09 1.11-1.277.266-.06.134-.086.475-.225-.248-.781-.681.648-.841-.574-.383-.563-.07-.165-.645-.326-.601-.01-.098.166-.346.398-.257-.077-.277-.086-.266-.562-.391-.15-.11.38.05.24-.806.346-.258-.1.257-.688.115-.782-.153-.595.298-.667-.331-2.577.362-.535.072-.284.796-.025.56-.998.933-.04.337.339.21.114.846-.438.225-1.062-.416-.272.733-.87.436-.346.515-.734-.066-.223.333-.485 1.245-1.302.243.17.686-.761.057-.3.293-.905-.61-.732-.52.183-.645-.138.229-.803.843-.386.582-1.184 1.133-.724.373-1.28-.368-1.172.405-.75.799.452.773-.633-.416-.858-.71-.961.52-1.282.431-.519-.101-.134-.77-1.035-.67.258.373 1.36-.56.159-1.167-1.988-.729-.258-.17-1.115-1.224.743v.25l-.619.556 1.132.582.58.777-.219.77.736.702-.622.562-.684 1.05-.136.904.117 1.164 1.382.37-.325.631-.274.19-.253.833-.348.54-.319-.322-1.647.619-.748-.71-.623-.106-.587.578-1.027.458-.455-.336-.175-.153-.944-.338-.834-.761-.307.292-.247-.277.597-.76-.42-.166-.555-.542-.497.494-.505.033-.495-.374-.274.095-.3-.118-.788.055-2.484 1.247-.299.287-.383.016-.192.135-.675.061-.291-.311-.333-.355-.04-.249-.026-.467 1.417-1.145.591-.325.35-.085.133-.185.266-.142.249-.476.252-.083.235-.25.395-.126.79-.973.583-.34.286-.051.498-.583.351-.118.458-.378.176-.49-1.178-.085.181-.654.043-.406-.122-.04.1-.667-1.311-1.167.414-2.095-.151-.431zm7.1 15.932l.336-.54 1.282-.178.785-1.26.472-.684.531-.841.34-.269.621.954.279.255.269.22.548.663-.907 1.422-.156.226.124.176-.226.303-.6-.175-.748-.511-.611-.258-.628.18-.354.45-.297.074-.761.11zm-1.697.606l-.567-.834 1.424-1.64.76.323-.113 1.028-.804 1.24zm-34.762 31.243l.263-.245.693.563-.994.263zM63.649 70.91l-.417.385-.154.366-1.639 1.006-.914.562-.18.239.033.25-.999.858 1.478.788-.193.876 1.451 1.592-.904.84.757.501.53-.636.923.413.39 1.393-.545.562.31.493.874-.653.407-.536.067-.12.109-.097.38-.426-.282-.93.73-1.309.515-.068.468-.643-.073-.336-.323-.437-1.13.643-.585.016-.4-.088-.43-.323-.362-.514-.066-.439.402-.37.53-.588.574-.285.273-.441-.22-.893.076-1.47-1.258-.547z"/></g><g fill="green"><path d="M73.116 68.38l-.72.375-.5.266-.434.222-.643.337-.357.096-.413.107-.498.119-2.55.603-.285-.05-.4.134-1.886-.3-.583-.052.002.303 1.258.547-.075 1.47.22.892 1.76-.824 1.074-.548.54.105.598.827-.016.336-.682.658-.594.615-.547.493-.385.073-.227-.146-.089.096.072.305-.311.4.323.437.074.335.559.31-.648.648-.38-.314-.515.068-.73 1.308.282.931-.38.426-.109.098-.067.118-.407.537-.874.653-.31-.494.545-.56-.39-1.394-.922-.413-.53.636-.758-.502.905-.84-1.452-1.591.193-.876-1.477-.788-.42.262-.245.325-.87.67-.387.159-.033.217-.118.201-.176-.024.17 1.116.728.258 1.167 1.987.56-.158-.373-1.361.67-.258.77 1.035.101.135-.43.518-.521 1.282.71.961.416.858-.773.634-.799-.452-.405.75.368 1.17-.373 1.282-1.133.723-.582 1.185-.844.386-.228.803.644.138.52-.183.611.731-.293.906-.057.3-.687.76-.242-.17-1.246 1.302-.332.486.065.222-.514.735-.436.346-.733.87.416.272-.225 1.061-.846.438-.21-.114-.337-.34-.933.042-.56.997-.796.025-.072.285-.362.534.33 2.577-.297.668.153.594-.115.782-.257.688.258.1.806-.346-.05-.24.11-.379.39.15.267.562.276.086.258.076.346-.398.097-.166.602.011.644.326.07.164.383.564.842.574.68-.649.249.781-.475.225-.134.086-.266.06-1.11 1.278-.08.09-.128.353.066.167-.167.401-.133-.066-.15-.1.084-.351-.184-.05-.05-.385-.273-.03-1.085.29-.48-.296-.676 1.272.69 1.173.33-.027.146.625.41-.067.479 1.034.58.042 1.376-1.62.404-.844.536.238-.127 1.02.479.13.447-.582 1.31.351 1.08.523.37.134.32.117-.175.346.229.31.14.295.967 1.201-.3.884.225 2.201 1.965-.779.3-.541.48-.868.496-.9 1.36-.959h2.402l.368-.704 1.595-.9.405-1.27 1.54-1.014 1.071-.74.348.938.95-.362.513-.867.94-.616 1.401-.803 1.19-1.864 1.04.398 1.245-1.044-.428-3.774.956-.427.031-1.14.882-.005.428.713 1.421-.778-.051-1.595.031-.18v-.002l.189-1.095-1.767-.659-.218-.082.212-1.113-2.868-.874.244-2.241-.485-1.386-.295-.542.745-1.421-.063-.412 1.012-1.799.005-.85.569-.834-1.589-1.437.823-.883 1.255 1.1 1.22-1.145-.263-1.716-.072-.476-.669.11-.4-.584-3.099.433-1.4-.741-.99.018-.535-.49-.384.109-.358.437-1.277-.14-.444-.118.9-1.03.108-.761.348-.455-.414-.957.228-.895-.322-1.04-.483.014.022-.224 1.639-.901.465-.502-.08-.851-.368-.275-.424-.888zm-4.704 8.347l-.222-.97 1.23-.252.13.727-.839.593z"/><path d="M52.624 87.69l-.531.84-.472.685-.785 1.26-1.283.178-.335.54.299.317.76-.11.298-.074.354-.45.628-.18.61.258.748.511.6.175.227-.303-.125-.176.157-.226.907-1.422-.549-.663-.268-.22-.279-.255-.622-.953zM46.954 90.97l.568.834.7.116.804-1.24.111-1.027-.759-.322zM54.225 79.21l-.24.389-.271.172-.263.162-.084.2-.3.085-.41.347-.852.927-.758.345-.333.05-.278.228-.867.841-1.49 1.527.555.541.42.166-.597.76.247.277.307-.292.834.761.944.339.175.152.455.337 1.027-.458.587-.578.623.106.748.71 1.648-.62.318.323.348-.54.253-.834.274-.19.325-.63-1.382-.37-.117-1.164.137-.905.683-1.05.622-.562-.735-.7.219-.772-.581-.776-1.132-.582z"/></g><g fill="#0ff"><path d="M179.055 152.08l-.21.3-.376.164-.96.384-.403.436.15 1.006-.205.798-.529-.13-.112.687-.3-.022-.063.294.195.063.14.274-.063.637.287.54.319.286.185.156.4.792-.044.533-.104.497-.169.147-.216-.182-.091-1.136-.168-.44-.54-.47-.587-.413-.189.028-.489.468-.825 1.192-.423.206.002.004.014.007.048.135.152.348.108.382.058.162-.199.568.44.321.001.002.015.011.437 1.795.535.095.144.174-.005.003.022.008-.058.02-.307.243-.359-.008-.033.011-1.168 1.822-.099 1.067.652-.244.55.084.15-.619.78-.338.358.047.059-.016.016.026.127.017.263.595.024.039.91.215.15-.418 1.086.094-.002.012.017.001-.187 1.076 1.423.302.944-.461.02-1.406.924-1.331.158-1.468.773-.163.684-.951.09-.265.269-.982.023-.134-.562.256-.001-.02-.013.006-.057-1.016-1.014-.4v-.007l-.015-.006.029-.427-.498-.007-.628-.409-.15-.026-.493.064-.575-.25-.02-.005.002-.005-.017-.007.276-.758-.468-.434.103-.496-.104-.778-.063-.375-.053-.02-1.136-.319-.131-.186.037-.044.23-.545.033-.13.75-.15.118-.551.194-.014.314-.207.043-.197.324-.084-.234-.654-.031-.054z"/><path d="M174.045 99.81l-1.147-.312-.919.526.64 1.928-.776.845-4.144 1.787-2.694-.292-2.019-.674-2.957.306-1.25-.577-.8.305-1.36 1.09-1.46-1.106-1.41.448-1.042-.935-2.177-.38-.866.963-.272 2.07.225 1.162-2.003.459-.417.527-1.98 2.735-2.94.1-.003 3.482 1.97-.64.916-.11.195-.053.018.026.123-.014.303.638.024.035.552.3v.004l.014.007.056.65-.447.814.804 1.81-.28.447.39.838-.467.772.007.033.257.563.16 1.315.025.111-.464.754.007.122.133.796-.034.856.008.128-.407.358-.206.366-.523.276-.063.056-.044 1.298-.92.284 1.856 3.106-.778.443-.006.841 1.259.311.004.01.01.003.324.987 1.834.576.013.014.522.62 1.33-.05.005.014h.01l.512 1.759 1.715 1.695.234 1.044 1.768.879-.002.004.017.008-.622.908.977.827v.002l.015.012.141 1.095 2.1-.344.01.015h.005l.566.88.058.022.927.233.379-.025.286.651.022.033.63-.048.981-1.55.42-1.248 1.004-1.158 1.622-.488.866.666.587.007.473-.56.309-.367-.238-1.198.524-.06.964-.341.296-.349.68.454.573.668.153.835.07.331-.423.423-.563.097-.54.224-.484.2-.504.192-.46.216-.697.601-.6.423-.312.476-.576.687-.671.52 1.614.866 1.075-.276.246-.345.014.013h.001l1.505 1.445.727.288.564.437v.006l.014.008.008 1.127-.45.805-.649-.185-.367.647.437.23-.002.005.017.009-.76 1.451-.079.036-.07.054-.443.18-.352.16-.472.75-.022.037-.012.017-.232.37-.33 1.545.318.095.234-.316.498.11 1.502.301.152.022.567.402.005.006.008.006.591.85.462.395.14-.259.334-.197.148.05.156.287-.17.21-.032.343.522.154.511-.16.05-.204-.24-.427.015-.175.405-.197.182-.25-.007-.394-.09-.603.28-.4.52-.236.179.132.061.23-.018.134-.14.503-.428.57-.041.223-.127.274-.006.165.084.354.217.946.064.45-.358 1.022.028.301.539.456.343.378.272-.05.267-.224.447-.504.42-.645.202-.476.127-.498.244-.147.322-.028.126-.309-.28-.083-.041-.505.083-.554.336-.511.071-.281-.036-.42-.028-.386-.195-.182-.435-.239.2-.525.102-.266.356-.094.202.117.17-.234.326.028.164.316.23.119.455-.078.521-.329.654-.056.462-.568.592-.44-.368-.437-.558-.687.471-1.439.202-.352 1.795-.917 1.425-.192.04-.095.212-.936.015-.14.483-.63.112-.64-.645-1.117-.467-1.052.365-.286 2.498-1.104.888-1.777 1.12-.689.118-.603-1.192-.74-1.219-1.798-1.773-.977-1.02-1.938.165-1.634.065-.632-.867-1.137-.5-1.418.56-.867.602-.983-.56-.774-.025-.714.335-.944 1.135-.812.167-1.742-.47-1.275.888-2.058-1.049-2 .49-1.973-.996-1.473-1.414.135-.673-.44-.233-.788.066-.178-1.015-1.307-.195-1.559-.218-.343.516-2.839.974-1.513-.592-1.385-1.669-.9-1.876.742-.632.012.097-1.302-.391-.987z"/></g><g fill="#f0f"><path d="M154.685 9.67l-.41.052-.053 1.14-.57-.034-.443.58.004.01.012.003 1.144 1.459.139.54-.276.565-.075.03-.372.263-.384.038-.051.02-.005-.015-.01.001-.084-.217.417-.351.002-.027-.2-.633-.01-.014h-.292l-.044.072-.123.368-.27.27-.043.073.077 1.241.012.045.408.911-.039.46.014.05-.204.183-.246.258-.473.387-.332.296-1.029-.121.01-.01-.025-.004.421-.612.283-.152.066-.075-.066-.488-.013-.033-.008-.008-.478-.213-.347-.54-.99-.135-.004-.011h-.01l-.196-.472-1.327.032-.453 1.234-1.432.204-.05.037-.263.355-1.033.619-.144.108.233 1.17.436.365 1.074-.32.01.013.003-.001.526.605-.616.214-.08.045-.646.245-.495.187-1.18.355-.327.114-.66-.062-.018-.01-.397.536-.046 1.334-1.014.524.184.53-.327.535-.27-.05-.312-.101-.53 1.395-.902.208.14 2.456.575-.054.127.866-.534.372 1.302 1.385-.525.394.285.927-.13.505.34.055-.253 2.012-1.155.16.017.33 1.945.357.193 1.606.053.36.45.32-.176.218.11 1.033.566 1.239-.21.723 1.157.17.968-.587.098.553-.571.915-.286.055-.429 1.195-.784.657-1.487.301.174.298.255.67.178.247.199.185.019.164-.068.267-.018.27.079.203.172.115.015.237-.152.218.104.212.318.411.048.075.034.2-.2.25-.034.368-.567.72-.117.334.081.456.22.363.007.552.36 1.237-.268.45-.063.47.098.5.2.184.35.067.216.686.067.434-.092.328-.008.07-.083.238.15.45.034.385-.2.271.289.78-.093.575.284.148 1.658-.721.337 1.075.71-.067-.166-.232v-.75l.45-.56.068-.218-.184-.1-.276.206-.44-.245-.029-.492.232-.346.094-.412-.182-.115.066-.194-.166-.442-.17-.181-.162-.253.049-.28.491-.449.736-.224.346.253.045.198.25-.133.491.032.21.218.2.068.284.233.257.035.123.244-.26.976.015.183-.296.56.05.903-.106.276-.2.2-.117.15v.2l-.166.218.034.335.231.34.245.729.29.25.244.472.374.364.227.37 2.531-.532.378 1.015.85-.18 1.142-.563 1.712-.113.679-.863 1.273-1.068.844-1.763.054-.797.735-.45 1.055-.078.605-1.217.373-.028.49.133.57-.241.437-.891.594.379 1.17-.03 1.669 2.087.934.602-.399.566.62.297.682-1.113 2.414-.569.13.622 2.44 1.038.238.93 1.59.285-.006-.257-.18-1.379-.121-.177.154-.23 1.936-2.895.193.087 2.477 2.513 1.021.962 1.213-1.9 1.143-.708.704-2.158-.526-1.104-.528-.99-.206-2.053-.984-.718-.682-.453-1.199-.841-.654-.569.3-1.63-1.593-.978-2.055-1.755-.722-2.246-1.738-2.466-.143-.965-1.992-1.112-.005-.288.268-2.297 1.05-.04.025-.395-1.585-.546-.577-1.672-.617-.58.078-.966.69-.295-.167-1.484.163-1.814-.629-.332-.774-.087-.356-.076-1.524-.161-.678-1.73 1.18-.886-.7-.621-1.613.055-.726-1.186-2.055-.624-.786.055-.517-1.314.55-1.135 2.199.956.592.461.336-.347 1.165-2.472.048-.825-.623-.24-.616-.192-.12-1.086-.255.023-1.88 1.389-.998.874-.88-.26-.835.037-1.653-.658-.634-1.343-.546-.985.062-.615-.597-.234-.828-.514zM134.845 27.58l-.3-.017-.234-.113-.185.396.171.99.627 1.74 1.56.166.148-1.25-.102-.474.136-.402.014-.35.234-.369-.05-.166-.258-.082-.443.031-.384-.267-.35.05-.35-.083z"/></g></g></svg>