<svg width="263.98mm" height="167.21mm" version="1.1" viewBox="0 0 263.98486 167.21256" xmlns="http://www.w3.org/2000/svg"><g transform="translate(-18.875 -99.77)" stroke-width=".35278"><path d="m151.76 145.11-0.80221-0.03 0.27587 0.61948 0.0296 0.30974-0.19791 0.4064-0.14464 0.40887 0.16793 0.20285 0.0102 0.15769-0.15805 0.15134-0.18133 0.0205-0.26881-0.53199-0.67981 0.41169-0.20531 1.8122-1.5924 0.35772-0.15663-0.30339-0.39123-0.52493-0.62125-0.63853 1.3702-0.5267-0.031-0.43568-0.27305-0.22789-1.8299 0.53446-0.73554 0.32808-0.31433 0.17568-0.87982-0.25752-0.16687-0.3616-0.35066-0.87207-0.68404-0.30339-0.88758 0.66922-0.91582-0.0303-9e-3 0.2847 0.38311 0.46037-2.709 0.22507-0.12135-1.505-0.51929-0.75953-0.42263-0.72002-2.6998 0.44097 0.63676 1.7022-1.59 1.5769-0.64382-0.15134-1.5815-0.40252-3.1997 0.68616-0.0169 0.98566 0.46531 0.44309 0.62265 1.6454 0.13441-0.0998 1.2446 1.9399-0.22789 0.88583 0.30585 1.5388 0.23672 1.5974-0.71155 0.35631-0.37113 0.64064 0.46884 2.2408-0.1464 0.78705 0.38806 0.15875-0.6223 2.4352 1.3938 1.6637 0.55774 2.013 1.0241-0.34043 1.245 0.38029 0.68086-0.10936-0.0173 2.1537-0.37783 0.93662-1.7434 3.0067-2.4388 0.89464-0.32138 0.79728 0.9211 0.6865-0.57079 1.4266-0.83079 0.37747 0.66463 3.2011 1.6658 1.4125 1.3945 1.1822 1.6429 1.3914 0.0917 0.2727 0.06 0.1785 0.0339 0.21379 0.4692 0.36936 1.3095 1.0315 2.0775-1.204 1.5187 0.15416 1.234 0.0455h1.2019l0.77152 1.0495 1.1352 0.28223 1.4256 1.2573 1.2217-0.58773 1.2816-0.70132 1.8662 0.76341 0.98178-0.73166 2.4582 1.1973 2.2747-1.7268 2.7499-1.1042 1.1381 0.88794 0.47414 0.98496 1.1924-0.67169 1.6983 0.24165 0.11218 0.57009-0.52246 0.94404 0.89711 3.4872-0.0857 1.8761-1.3772 0.22718-1.6249-0.56585-0.0117 1.542 0.87913 1.6316 0.60042 0.46743-0.1143 1.8838-0.89076 3.4802 1.149 3.2389 3.0593 1.6351 0.41698-0.5274 2.0031-0.45826-0.22507-1.1628 0.27199-2.0698 0.86536-0.96273 2.177 0.38029 1.0428 0.93486 1.41-0.44838 1.4598 1.106 1.3593-1.0901 0.8008-0.3048-0.0194-3.0096-1.5984-1.6291 0.16193-1.2164 1.366-1.2263-0.30656-1.0538-0.0843-1.2848 1.1419-0.84032 0.95426 0.2226 1.9484-1.422 0.23848-1.7184 1.1663-0.89076 0.83537 1.4891 1.7787-0.78846 0.31468-2.262 0.83255-0.3235-0.40746-1.5346 0.0885-0.62936 1.0192-0.19156 1.7674-1.62 0.19685-1.2608-0.60924-1.064 4.8422-2.8967-0.17639-1.9798-0.0138-0.15663-0.36054-0.53411-0.71191-1.0576 1.5977-0.74084-0.48472-0.889 0.91194-1.784-1.2756-0.78105-1.3818-2.4885-0.95638-1.4799-0.90241-0.30974 0.31997-1.0915 1.3593-0.49954 1.3384-0.86113 0.68333-2.2782-0.42828-1.2746 0.95039-1.0601 0.0621-0.95038-1.591-0.28505-0.23848-0.92957-2.4391-1.0382-0.12983-0.62195-2.4141 0.56903-0.68121 1.1127-0.62089-0.29633 0.39899-0.56656-0.9345-0.60184-1.669-2.0874-1.1694 0.0303-0.59373-0.37888-0.43674 0.89076-0.57009 0.2413-0.49036-0.13264-0.37359 0.0275-0.60431 1.2174-1.0552 0.0773-0.73483 0.45085-0.054 0.79622-0.84384 1.7628-1.2739 1.0689-0.67839 0.86254-1.7117 0.11289-1.1416 0.56374-0.85055 0.17991-0.37818-1.0153-2.5312 0.53234-3e-3 0.63041 0.25365 0.5715 0.085 0.41064-0.11042 0.17921-0.36583 0.49177-0.21555 0.0504-0.32456-0.55563-0.34748-0.19226-0.53411-0.41769-0.16651-0.2346-0.20602-0.0723-0.49495-0.46214-0.50024-0.32526-0.37465-0.4833 0.0289-0.15911 0.3616-0.21907 0.15769-0.23566 0.11113-0.30092 0.2988-0.0822 0.28081-0.22331 0.10301-0.1778-0.0303-0.22013-0.2667-0.11501-0.5401 0.0579-0.38276-0.30339-0.70909 0.0677-0.33725-1.0756-1.6581 0.72143-0.28399-0.14781 0.0928-0.57609-0.28964-0.77893-0.39334 0.26529-1.7572-0.44733-0.72637-0.23847-0.23283-0.61313-8e-3 -0.29281-0.61313-0.62759-0.49706-1.6873-0.54292-1.5145-0.16405-0.70379-0.1023-0.2413-0.41628-0.82021-0.18556-0.61419-0.0448-0.7567-0.23778-0.4565-0.2547-0.48789-0.42016-0.37289-0.0928-1.3959-2.2553-1.246z" fill="#000080"/><path d="m160.93 197.69-1.1194 1.1589-0.34608 4.3363-1.1917 1.5561-1.8002 1.0072-1.76 1.113-1.4259 0.76447-1.1719 0.27058-3.0632 0.48189-0.59478-0.76905-2.7005-0.39406-0.63923-0.85054-2.5636-0.68968-0.68862 0.24024-2.3061-1.1165-1.391 0.61418-0.55951 0.76871-0.93168 0.33161-0.50659 0.5334 0.71684 1.3317-0.41804 0.89006-1.5046 0.52423-0.69038 1.0022-2.9436 1.4348-2.0648 0.031-4.3406 3.2632-1.3039 1.0072-0.52035 0.36195-1.8574 0.61559-0.75072-0.91193-3.8509-1.5236-0.90029 0.76729-0.63711 1.7177-0.93381 0.13759-1.3585-0.13759-1.5187 0.50059-0.46073 1.089 1.7036 0.65828-0.98531 0.97402-1.802 0.12312-0.47414 0.51541-0.72425-0.0699-0.43744-1.2266-1.239 0.72249-1.1342-0.79587-2.2571 1.0213-1.0213 0.7373-1.3229 1.0442-2.3848 0.81774-0.53693-0.33337 0.22401-2.3806-2.9707 1.4316 0.02117 1.6605-0.55245 0.67663-1.9604 0.28363-1.118 1.2012-0.38312 0.80504 0.79234 1.7681-2.3714 1.8299-1.1896 1.7166-1.1716 0.24059-0.63041 1.7459-1.621 1.2446-0.75318 0.17991-0.24977-0.13828-2.2363 1.1694-0.27693-0.56797-0.38382-0.55245-0.43427-0.33373-0.09984-0.23354-0.08361-0.98671-0.14111-0.27129-0.24236-0.17956-0.10054-0.26706 0.03422-0.1845-0.08431-0.14993-0.21661-0.21766-0.15804-0.2406-0.32597-0.7299 0.01693-0.33372-0.12241-0.28646-0.48401-0.39476-0.52211-0.5715-0.25718-0.2674-0.11606-0.35172-0.12912-0.73554-0.12171-0.3676-0.57785-0.59125-0.48966-0.2787-0.2727-0.33408-0.02787-0.56691-0.2166-0.83715 0.0187-0.79233-0.05292-0.29387-0.11642-0.21696-0.60254-0.73589-0.34854-0.0339-0.68439 0.1009-0.30621-0.18451-0.34466-0.68474-0.33373-0.31714-0.13899-0.30622 0.29492-0.7881 0.01164-0.54434-0.13617-0.37888-0.81562-0.75741-0.6604-0.80575-0.08396 0.078 0.12629 0.46285-0.16828 0.25259-0.25929-0.17533-0.30833-0.10478-0.92534 0.1898-0.4131-0.0991-1.0869-0.58985-0.10372 0.1591-0.0568 0.81527 0.05785 0.50518-0.09913 0.0864-0.0095 0.13441-0.31115 0.1457-0.30304 0.26564-1.0495 0.36901-0.1711 0.0804 0.08079 1.1585 0.04974 0.12665 0.22154 0.28857 0.33902 1.1398 0.03845 0.0977 0.74154 0.0822 0.0014 0.012 0.01376 2e-3 0.11289 0.80927 0.31962 0.0952 0.28646-0.0155 0.629 0.28081 0.0049 8e-3 0.01164 4e-3 0.02117 0.0522 0.41804 0.70837-0.01834 0.28434 0.05256 0.13053 1.0033 1.0051 0.79058-0.0455 0.0035 0.0152 0.01164-7.1e-4 0.01023 0.0963 0.16545 0.72108-0.11359 0.20602-0.32314 1.4746-0.0441 0.0445-0.0071 0.0586-0.26882 0.39688-0.64523 0.4706-0.08608 0.0864-0.33196 0.78564-0.78528 0.48436v0.82021l-0.92604 1.6626 0.55739 1.8394-1.1991 1.6076-0.133 0.9899 0.4385 1.1822 0.98284 0.61207 1.2831-0.085 0.02611 0.019 0.89535 0.43568 0.04057 8e-3 1.1561 0.0889 0.34678 0.22719 0.13723 0.0289 0.23424-0.0462 0.41628-0.19333 0.45896 4e-3 -0.01411 0.0183 0.02999-6e-3 -0.57468 0.75106 0.13229 0.61595-0.71896 1.2372 0.56797 0.70274 0.02222 0.89076-0.68968 0.37924-0.48648 1.4972 0.23178 0.53446 1.0079 0.48048 0.26952-0.56727 0.78105-0.13511 0.95215-1.1539 0.15134-0.0885 0.12524-0.14393 0.06033 0.036 0.0635-0.037 0.23107 0.2092-7.06e-4 2e-3 0.01729 0.0102-0.18098 0.52847 0.60008 0.50306 0.0014 2e-3 0.01446 0.012 0.44979 0.78669 0.36442 0.98884 0.40534 0.0162 0.01129 0.0145h0.0046l0.73378 0.94933 0.23107 1.118 0.7874 0.55915 0.58455-0.10019 0.0028 0.0145 0.01341-2e-3 0.16616 0.98566 0.71579 0.51999-0.0018 1e-3 0.01623 0.012-0.59796 0.38735-0.21026 0.58068 0.4893 0.86607 1.0079 0.41345-7.06e-4 7e-3 0.01587 7e-3 -0.08467 1.3705 0.5013 1.3526 0.3182 0.27658 0.78528 0.68086 3.53e-4 2e-3 0.01376 0.0124 0.11783 0.95003 0.68545 0.52387 0.12347 0.35949 0.91017 0.99201-0.19932 0.38488 0.8756 1.313 0.30833-0.0378 0.9518-0.35102 0.53164-0.32526 0.10336-0.22754 0.11677-0.30303 0.93239-0.48648 0.35207 0.085 0.0021 0.019 0.01199-4e-3 0.05115 0.54645 0.02575 0.0173 1.7424 0.90699 0.03105 0.0123 0.63641-0.35771-0.01058-1.0619 0.84772-0.56304 0.16616-0.45226 0.2353-0.0907 0.03704-0.0526 0.07056 0.0113 0.17498-0.0677 0.47449 0.16298 0.50941-0.18873 0.20038-0.0924 0.0074 0.0159 0.0078-3e-3 0.22401 0.47061 0.07832-0.0187 0.55951-0.28187 0.36689-0.39017 0.8315-1.1998 0.27728-0.61524 0.30127-0.23319 1.1504 0.23319 0.0074 0.0138 0.0092 1e-3 0.66816 0.68722 1.0008-0.45121 0.60078 0.21802 5e-3 0.01 0.0116 4e-3 0.32455 0.60572 0.5588 0.0487 0.6283 0.42721 0.2607 0.10231 0.65194-0.26988 0.0949-0.0589 0.41699-0.73519 0.5842 0.18344 1.4016-1.0022 0.5842-0.93627 0.11677-0.0162 0.55598-0.16933 0.27869-0.21555 0.49283-0.019 0.32774-0.10019-0.0674-0.54257-0.0688-0.44132 0.24977-0.3683 0.56762-0.1704 5e-3 -3e-3 0.42897-0.38347 0.15064-0.16087 0.0977 0.0184 0.72355 0.0557 0.32949-0.0575 0.1651 0.13088 0.99977 0.35419 0.0709 0.0159 0.49989-0.45544-0.25012-1.2492 0.33337-0.85267h0.14323l0.89606-0.0818 0.51364-0.22437 0.0543 0.17216 0.018-1e-3 0.38876 1.2566 1.6242 0.24977 0.68368-0.23495 1.0869 0.15487 0.98249-0.47202 0.5842 0.16722 6e-3 0.01 8e-3 2e-3 0.80045 1.4376 0.87101 0.0709 0.70062 0.53481-3.6e-4 4e-3 0.0134 0.0102-0.066 1.1525 0.74013 0.91757 0.84984-0.0377 0.91581-1.2936 0.91722 0.1838 2.1826 1.8761 0.90064-0.95285 0.0723 0.0296 1.5381 0.42686 0.57997 0.0744 0.33408 0.35066 0.83396-0.43462 0.26706-0.55069-0.4505-0.83644 0.0141-0.13476-0.0423-0.0924 0.0635-0.11253 0.048-0.4632 0.37711-0.40534 0.0282-1.566-9e-3 -0.29739 0.76553-0.52494 0.88583-1.4485 2.2239-0.1203 0.4572 0.0998 0.67839-9e-3 0.51682-0.10724 0.40534 0.0956 0.45861-6e-3 0.48754-0.85478 0.23283-0.4505 0.66817 0.0624-0.0162-0.73589 0.38382-0.51788-0.22225-0.61948 1.0467-0.97437-0.59937-1.512-0.0261-1.1733 0.40216-0.55175 0.19191-1.3349 0.1831-0.0191 1.3543-0.27693 0.53904-0.19085 1.7022-0.28399 0.88441-0.75283 0.23283-1.0696 0.66781-0.51823 0.50059 0.13335 0.58491-0.2667 0.56727-1.0036-0.35102-1.2037 0.21837-0.27305 0.756-1.0672-0.0797-0.26035-0.64488-0.9585-0.0123-0.0363-0.18803-0.17921-0.20602-1.0354-0.39935-1.2301-0.15769-0.44908-0.75776-0.14464-8e-3 -0.0145-5e-3 -7.1e-4 -0.3609-0.67416-0.40851-0.0829-5e-3 -0.0106-0.0102-2e-3 -0.46461-1.1123-0.0466-0.0212-0.85725-0.26988-0.38524-0.30515-2e-3 -1e-3h3.6e-4l-0.0141-0.0116 0.31679-0.16757-0.0497-0.36795 0.26035-0.11888 0.53128-0.53093 0.19297-0.31997 0.56762-0.28364 0.43427-0.93592 0.99836-0.89217 1.2961 0.54222 2.5605-0.61983 0.53481-0.46849 0.0501-0.81845 0.53305-0.48471-0.0995-0.83609 1.3511-0.35101 0.25082-0.58385 0.96802 0.11571-5e-3 -0.0822-0.22155-1.2439-0.025-0.0603 0.40075-0.53552 0.75071 0.25047 1.7522-1.2368 0.06-0.39052 0.12065-1.0961 0.0201-0.31856-0.42333-0.62054-0.51435 0.14993-0.69321-0.38347 2e-3 -4e-3 -0.0166-9e-3 0.85266-1.4404 1.0065 0.0762 1.1377-0.7433 1.1659-1.4891 0.98602 0.10054 0.64911-0.32773 2e-3 -3.4819 2.9415-0.10019 1.9794-2.7351-3.0593-1.6351-1.149-3.2389 0.89076-3.4802 0.1143-1.8838-0.60042-0.46743z" fill="#008080"/><path d="m32.11 221.45-0.0822 0.47872 1.3187 0.61489-0.12488 0.60713 0.79798 0.32032 0.07091-0.69462 0.23495-0.51647-1.8658-0.99236zm-3.1034 3.8086-0.1524 0.25329-0.04868 1.0453 0.07303 0.31891-0.08855 0.0127-3.52e-4 6e-3 -0.81315 0.44909-0.18203 0.19579-0.0762 0.96344 1.0735 1.464 0.22472 0.84949-0.09772 0.0635-0.52987 0.50342-0.62724 0.248-0.07691 0.0501-0.01341-0.0141-0.67204-0.70555-1.1469 0.43462-0.01446-0.0138-0.0018 7.1e-4 -0.36795-0.35208-1.0693 1.1007-0.79798-0.5207-0.43462 0.28963-0.05715 0.0243-1.1451 1.0576-0.03457 4e-3 -0.08184 0.10125-0.72178-0.0141-0.09737 0.0106-0.11783 0.33655-0.56409-0.0194-0.4759 0.86395-0.03281 0.067-0.0088 0.29316-0.38312 0.51188-0.04833 0.0984 1.1148 0.49319 0.75106 0.6858-3.53e-4 2e-3 0.01623 0.0102-0.15134 0.95285-0.0254-7e-3 -0.10513 0.0607-0.31926-0.18203-0.01482-5e-3 -0.02187 0.0462-0.02787 0.32491-0.39511 0.63289-0.40675 0.79869-0.28434 0.60289 0.1845 0.38453-0.0441 0.0349-0.15628 0.26987-0.55986 0.30198-0.07726 0.0617 0.20849 0.30375 1.149-0.43427 0.35242-0.75318 0.69674-0.0148 0.25859 0.0864 1.3952 0.0896 0.07267-8e-3 0.07267 0.0614 0.59231 0.49777 0.8121-0.5267 0.28399-0.68509 1.1342 0.18415 0.71755-0.20144 0.33373-0.0494 6e-3 0.0155 0.0099-3e-3 0.24483 0.65793 2.0249 0.1838 0.93204-0.54787 1.7201-0.93203 0.79516-0.66005-0.1524-0.99942 0.3235-0.13829 0.64699-0.44168 0.29069-0.39511 0.27869-0.14675 0.68686-0.71156 0.04339-0.073 0.97437-0.37042 0.04551 5e-3 0.79904-0.17603 0.30903-0.19826 0.39088-0.0967 1.7297-0.99448 0.37888-0.79798 0.57856-1.6771 0.0254-0.12911-0.20461-0.26847-0.7874 0.18874 0.0042-0.0166-0.02011 5e-3 0.04445-0.0953 0.15875-0.59725 0.0032-0.0741-0.4191-0.0462-0.08114 0.0815-0.53375 0.75671-0.6357 0.41416-0.06632 0.066-0.01305-0.0145-0.0021 1e-3 -0.36689-0.0995 0.04763-0.26141-0.32914-0.36794-0.45226-0.33937-0.09278-0.32456-0.58596-0.9585-0.0254-0.0265 0.41981-0.53022 0.24271-0.11113 0.36266-0.36688 0.06244-0.09-0.23107-0.95815-0.5588 7e-3 0.02646 0.31221-0.44168 0.76553-0.3997 0.28681-0.71473 1.1631-0.4124 0.51823-0.61701 0.11677-0.29916 0.53728-0.12841 1.0216 0.08361 0.58949-1.2968 2.2169-1.0689 0.62406-0.36477-0.21484 0.08573-0.0843 0.3108-0.32243-0.0099-0.35596-0.01094-0.43144-0.21731-0.46285 0.10513-0.55492 0.12806-1.0548-0.0085-0.41981 0.29351-0.37147 0.22507-0.51259 0.27975-0.14781 0.19685-0.59655 0.13229-0.51259-0.20285-0.52634 0.18944-1.1307-1.7808-0.7941l-0.91966-1.1955z" fill="#f00"/><path d="m119.26 143.76-0.80045 0.35948-0.55245 0.32773-0.0914 0.0399-2.0962 0.11888-0.33444 0.0709-1.5476 0.33161 0.24941 0.35419 0.60325 0.70344 0.12383 1.0971 0.0127 0.48189 1.1486 0.93239 0.1965 0.41452 1.1388-0.0586-0.013 0.65616 0.48825 0.91864 0.0416 0.078-0.11147 0.6985 0.85478 0.0614 0.6985 0.84879-0.19685 0.53269 0.14217 1.0463-0.0476 0.31856-1.1328 0.50412-8e-3 0.91863-0.44874 0.21096-1.3127-0.34113-0.15134-0.11219-0.83291 0.15029-0.84914 0.0963-0.22542 0.34325-0.647-1.4238-0.91581-0.30516-1.1504 0.41487-0.91122 0.20108-0.0649 0.18768 0.4445 0.65405-0.84173 1.3078-0.59055 1.0576-0.71861 0.4833-0.71155 0.29951-0.27799 0.11324-0.78846 0.33302 0.36266 1.1088 0.34501 0.46884-0.16651 0.56268-0.24094 0.35489-0.68475 0.21061-0.64699 0.13582-0.0568 0.66181-0.4579 0.99836 0.70591 0.62336 0.091 0.11289-0.51082 0.91687-0.39723 0.2667-1.2555-8e-3 -0.1009 0.50306-0.36371 0.47202-0.57926 0.13652-1.9988 0.19192-0.95779-0.0173-1.6136 0.65546 0.0088 0.52529-1.1807 0.31714-0.24518 1.052-0.43392-0.0448-0.12136 1.0315-0.76165 0.37535-0.30198-0.32949 0.13547-0.30233-0.06491-0.42228-0.40675-0.23706-0.39123-0.65758-0.37148-0.40464-0.68933 0.63465 0.08008 0.85125-0.46567 0.50165-1.6387 0.901-0.02187 0.22472 0.4826-0.0145 0.32279 1.04-0.2286 0.895 0.41416 0.95708-0.34819 0.45473-0.1076 0.76095-0.90064 1.0301 0.4445 0.11782 1.2771 0.14006 0.35807-0.43674 0.38382-0.10901 0.53516 0.49036 0.98954-0.0187 1.4005 0.74119 3.0988-0.43286 0.4004 0.5835 0.66851-0.10936 0.0723 0.47589 0.26282 1.7159-1.2206 1.1444-1.2545-1.0992-0.82303 0.88335 1.5889 1.4365-0.56868 0.83396-0.0049 0.85055-1.0118 1.7988 0.06279 0.41134-0.74542 1.4213 0.29528 0.54258 0.48507 1.3854-0.24448 2.2416 2.8681 0.87383-0.21167 1.1123 0.21766 0.0825 1.7667 0.65864-0.18839 1.0964-0.0286 0.24871 0.0487 1.5268-1.421 0.77823-0.42792-0.71261-0.8823 4e-3 -0.03104 1.1412-0.95603 0.42651 0.42792 3.7737-1.245 1.0442-1.0407-0.39829-1.1889 1.8641-1.4016 0.80292 0.53587 1.9928 0.1778 0.66076-0.52776 1.0315-0.93627 1.8344 0.08925 0.52176 0.387 2.2574-0.57891 1.0022-1.5924 0.20496 0.92357 2.1685-1.0262 2.9386 0.83926 0.97543 0.13335 0.68156 0.16863 0.87031 0.35913 1.8461 1.9604-0.28363 0.55245-0.67663-0.02117-1.6605 2.9707-1.4316-0.22401 2.3806 0.53693 0.33337 2.3848-0.81774 1.3229-1.0442 1.0213-0.7373 2.2571-1.0213 1.1342 0.79587 1.239-0.72249 0.43744 1.2266 0.72425 0.0699 0.47414-0.51541 1.802-0.12312 0.98531-0.97402-1.7036-0.65828 0.46073-1.089 1.5187-0.50059 1.3585 0.13759 0.93381-0.13759 0.63711-1.7177 0.90029-0.76729 3.8509 1.5236 0.75072 0.91193 1.8574-0.61559 0.52035-0.36195 1.3039-1.0072 4.3406-3.2632 2.0648-0.031 2.9436-1.4348 0.69038-1.0022 1.5046-0.52423 0.41804-0.89006-0.71684-1.3317 0.50659-0.5334 0.93168-0.33161 0.55951-0.76871 1.391-0.61418 2.3061 1.1165 0.68862-0.24024 2.5636 0.68968 0.63923 0.85054 2.7005 0.39406 0.59478 0.76905 3.0632-0.48189 1.1719-0.27058 1.4259-0.76447 1.76-1.113 1.8002-1.0072 1.1917-1.5561 0.34608-4.3363 1.1194-1.1589 1.3356-0.66851-0.87913-1.6316 0.0117-1.542 1.6249 0.56585 1.3772-0.22718 0.0857-1.8761-0.89711-3.4872 0.52246-0.94404-0.11218-0.57009-1.6983-0.24165-1.1924 0.67169-0.47414-0.98496-1.1381-0.88794-2.7499 1.1042-2.2747 1.7268-2.4582-1.1973-0.98177 0.73166-1.8662-0.76341-1.2816 0.70132-1.2217 0.58773-1.4256-1.2573-1.1352-0.28223-0.77152-1.0495h-1.2019l-1.234-0.0455-1.5187-0.15416-2.0775 1.204-1.3095-1.0315-0.4692-0.36936-0.0339-0.21379-0.1517-0.4512-1.6429-1.3914-1.3945-1.1822-1.6658-1.4125-0.66463-3.2011 0.83079-0.37747 0.57079-1.4266-0.9211-0.6865 0.32138-0.79728 2.4388-0.89464 1.7434-3.0067 0.37783-0.93662 0.0173-2.1537-0.68086 0.10936-1.245-0.38029-1.0241 0.34043-0.55774-2.013-1.3938-1.6637 0.6223-2.4352-0.38806-0.15875 0.1464-0.78705-0.46884-2.2408 0.37113-0.64064 0.71155-0.35631-0.23672-1.5974-0.30585-1.5388 0.22789-0.88583-1.2446-1.9399-0.13441 0.0998-0.62265-1.6454-0.46531-0.44309 0.0169-0.98566-0.63394-1.5995-0.16299-1.0005-0.5976 0.36195-0.51365-0.27164-0.0152-0.19967-0.10724-0.13793-0.23001 0.10759-0.81598 0.91017-1.0044-1.1359-0.61913 1.0135-1.0682-0.15276-3.0688-2.8547zm0.0148 11.543 0.28963-0.76341 0.70309-0.22613 0.50765 0.33408-0.59161 0.75812zm-26.333 19.078 0.05468-0.39652 0.7299-0.63076 0.28116 0.16933-0.0441 0.52282-0.0039 0.19367-0.90064 0.42051z" fill="#0f0"/><path d="m148.7 116.18-0.48366 0.96415-1.4379 0.95743-0.64205-0.17356-0.67416 0.34325 0.0324 0.5655-0.10195 0.0116-0.50659 0.13371-0.63853-6e-3 -0.10265 0.0116-0.88089 1.8874-0.69003 0.27022-1.4446-0.46531-0.77117 0.7045-1.3906 0.42897-0.77505-0.36159-3.0014-0.17039-0.84137 1.0463-1.2862-0.19261-0.0106-0.0127h-5e-3l-0.53375-0.65793 0.12629-1.2965-0.73907-1.1441-0.75706-0.40217-1.3497 0.066-0.0991 0.0339-0.5842 0.3362-0.57291 0.0596-0.0628 0.0215-0.51717-0.40288-0.70062 0.10019-0.33584 1.3039-0.81527 1.1592-2.1276 0.70696-0.32102 0.34361-2.2257 0.4639 1.1388 0.69215 0.86289 0.52352 2.2814 0.55316 0.16651 1.2538-0.14958 0.33444 0.0723 0.29174 0.4699-0.24482 0.49883 0.14216 1.3945-1.493 0.0699-1.6055 1.0858-0.12559 0.63323 0.98178 0.75389 0.0705-0.0508 0.79975 1.0534 0.62618 0.0716 0.29104 0.53798 0.84702 0.0116 0.61278 2.3414-0.0646-0.31397 1.9741 0.60642-0.18697 0.34714 0.7553-0.56762 1.0185 0.87277 1.7967-0.28998 0.25223-0.91723 0.40922-0.21766 0.51365-1.5399 0.81703-1.215-0.73519-0.5013 0.47378-0.59972 0.52317 0.56197 1.0008-2.244 0.80716-0.33479 0.56233-1.5649 0.4385-0.72284 1.9216-0.32421 0.11395-0.73483 0.70485-1.6803 0.78916-0.88548 0.99625-2.5728 1.27 3.0688 2.8547 1.0682 0.15276 0.61913-1.0135 1.0044 1.1359 0.81598-0.91017 0.23001-0.10759 0.10724 0.13793 0.0152 0.19967 0.51365 0.27164 0.5976-0.36195 0.16299 1.0005 0.63394 1.5995 3.1997-0.68616 1.5815 0.40252 0.64382 0.15134 1.59-1.5769-0.63676-1.7022 2.6998-0.44097 0.42263 0.72002 0.51929 0.75953 0.12135 1.505 2.709-0.22507-0.38311-0.46037 9e-3 -0.2847 0.91582 0.0303 0.88758-0.66922 0.68404 0.30339 0.35066 0.87207 0.16687 0.3616 0.87982 0.25752 0.31433-0.17568 0.73554-0.32808 1.8299-0.53446 0.27305 0.22789 0.031 0.43568-1.3702 0.5267 0.62125 0.63853 0.39123 0.52493 0.15663 0.30339 1.5924-0.35772 0.20531-1.8122 0.67981-0.41169-0.37642-0.9779-0.0501-0.36724-0.16686-0.20038-0.14076-0.6544-0.0427-0.19861-0.32844-1.4774-0.16086-0.89817 0.0945-0.57785 0.14499-0.0885-0.0504-0.17709 0.15381-0.0275 0.22966 0.14429 0.32244 0.41416 0.13511 0.26988 0.30127 1.3614 0.38947 1.2531 0.0533 0.17145-0.0409 0.2861 0.80221 0.03 0.92322-1.2471 2.2553 1.246 0.0928 1.3959 0.42016 0.37289 0.2547 0.48789 0.23778 0.4565 0.0448 0.7567 0.18556 0.61419 0.41628 0.82021 0.1023 0.2413 0.16405 0.70379 0.54292 1.5145 0.49706 1.6873 0.61313 0.62759 8e-3 0.29281 0.23283 0.61313 0.72637 0.23847 1.7572 0.44733 0.39334-0.26529 0.20038-0.27094-0.0335-0.38452-0.14993-0.45121 0.0833-0.23742 8e-3 -0.0702 0.0921-0.32773-0.067-0.43427-0.2166-0.68545-0.35066-0.0674-0.19967-0.18344-0.0974-0.50024 0.0631-0.46955 0.2674-0.45085-0.35948-1.2372-8e-3 -0.55174-0.21908-0.36266-0.0815-0.45685 0.11748-0.33443 0.56691-0.71861 0.0332-0.36759 0.20073-0.25118-0.0335-0.19967-0.0487-0.0751-0.3182-0.41064-0.10407-0.21202 0.15205-0.21801-0.0145-0.23742-0.17251-0.11501-0.0783-0.20285 0.0176-0.26952 0.0677-0.2674-0.019-0.1644-0.19897-0.18485-0.17744-0.2473-0.25506-0.66957-0.17392-0.29775 1.487-0.30127 0.78387-0.65687 0.42898-1.1952 0.28575-0.055 0.57079-0.9151-0.0977-0.5528-0.96767 0.58737-1.1571-0.17074 0.21026-0.72284-0.56656-1.239-0.10972-1.0329 0.17639-0.21802-0.45014-0.32032-0.0533-0.35984-0.19297-1.6058-1.9449-0.35736-0.0176-0.3302 1.155-0.15911 0.25294-2.0126-0.33902-0.055 0.12912-0.50482-0.28469-0.9271 0.52493-0.3937-1.3021-1.3854 0.5341-0.37183-0.127-0.86572-0.57503 0.0543-0.14005-2.456 0.90241-0.20849 0.52987-1.3952 0.31185 0.1016 0.27059 0.0497 0.32631-0.53446-0.18344-0.53023 1.0135-0.52422 0.0459-1.3339 0.39688-0.53622-0.14006-0.0691-0.61947-0.27729-0.6851-0.36547-0.10336-0.0508-0.4759 0.19932-0.19967 0.68721-0.0452-4e-3 -0.30409 0.0914-0.56162-0.17215-1.8884-0.17674-0.77364-0.19827-1.0901-1.0439-0.41522-0.33055-0.0321-0.0981-0.0325-0.0314 4e-3 -0.0554-0.066-0.20073 0.13652-1.0231-0.52599-0.34396-1.2132-0.0219-1.59-0.22578-0.88089 0.56127-5e-3 -0.0205-0.0106 7e-3 -0.20603-0.75529-0.66357-0.35349zm5.2582 10.97 0.34995 0.0829 0.35031-0.0501 0.38382 0.2674 0.44309-0.0314 0.25823 0.0818 0.0501 0.16651-0.23389 0.36795-0.0141 0.35136-0.13653 0.40111 0.10231 0.47484-0.14888 1.2492-1.5589-0.16651-0.62689-1.7385-0.17145-0.9906 0.18521-0.39652 0.23283 0.11359 0.30092 0.0169z" fill="#00f"/><path d="m169.37 101.13 0.71931 0.34396 5e-3 0.01 9e-3 4e-3 0.23707 0.47943-0.61701 0.32949-0.75918-0.53587-1.4309 0.51047-0.36936 0.45403-0.61948-0.23672-0.0734 0.0102-0.68756 0.27834-0.55633-0.1083-0.0282 4e-3 -0.98496 1.0209-0.0515 0.73378-0.68262 0.37077-0.0173 0.0406-0.0152 0.47942-0.34748 0.36407-0.0212 0.049 0.49354 0.75812-0.11007 0.56515-0.64982-0.0367-1.0693 1.004-0.51611 0.0819-0.73413 1.0721 1.0696 1.1596-0.81527 0.6544 0.35031 0.81033 0.81457 0.32103 1.0086 0.7754 0.26105-0.13405 0.76765 0.31679 7e-4 6e-3 0.0134 6e-3 0.0483 0.66322 0.62053 0.52282 0.33373-0.51753 0.80081 0.066 0.0836-0.48366 1.966 0.31151 0.0928-0.40535-0.28011-0.95708 0.81739 0.21978 0.2861-0.9084 0.95744-0.22543 9e-3 0.0159 6e-3 -1e-3 0.78952 0.69039 0.87947-0.44521 0.25329-0.51576 0.45509 0.0596 0.44309-0.58067 0.57009 0.0335 0.0529-1.1398 0.40993-0.0519 0.69109-0.1591 0.82868 0.5147 0.21025-0.19015 0.75812-0.68121-0.75424-1.119 0.48507-0.36371 0.82727 0.58631 0.6671-0.5334 1.1465 1.9999-0.93204-0.10478-0.65088-0.26528-1.1603 0.90452-0.0617 0.61524 0.54575 0.98531 0.63429 1.3423 1.6521 0.65828 0.83573-0.0367 0.88018 0.26 0.99695-0.87418 1.8807-1.3889 0.25541-0.0226 0.11924 1.0855 0.61666 0.19297 0.623 0.23918-0.048 0.82445-1.1656 2.4723-0.33585 0.34749-0.59231-0.46144-2.1989-0.95567-0.54927 1.1349 0.51682 1.3144 0.78528-0.0557 2.0553 0.62441 0.72602 1.186 1.6122-0.0554 0.70026 0.62124-1.179 0.88582 0.67733 1.7297 1.5244 0.16193 0.35631 0.0758 0.77364 0.0871 0.629 0.33126-0.16333 1.8143 0.16792 1.4838-0.69039 0.29527-0.0783 0.96556 0.61736 0.57996 0.57644 1.6729 1.5854 0.54574-0.0247 0.39511-1.0502 0.0402-0.26776 2.2966 5e-3 0.28752 1.9914 1.1123 0.14358 0.9652 1.7378 2.4656 0.72178 2.2465 2.0553 1.7547 1.5928 0.97826-0.30022 1.6298 0.65441 0.56868 1.1991 0.84137 0.68157 0.45262 0.98425 0.71825 0.20566 2.0525 0.52776 0.99096 0.5267 1.1035-0.70415 2.1586-1.143 0.70662-1.2132 1.9008-1.0213-0.96167-2.4768-2.5135-0.19262-0.0871-1.9364 2.8946-0.15416 0.23036 0.12135 0.1778 0.17957 1.3786 7e-3 0.25683-0.0621 0.95038-0.95039 1.0601 0.42828 1.2746-0.68333 2.2782-1.3384 0.86113-1.3593 0.49954-0.31997 1.0915 0.90241 0.30974 0.95638 1.4799 1.3818 2.4885 1.2756 0.78105-0.91194 1.784 0.48472 0.889-1.5977 0.74084 0.71191 1.0576 0.36054 0.53411 0.0138 0.15663 0.17639 1.9798-4.8422 2.8967 0.60924 1.064-0.19685 1.2608 1.1956-0.01 0.96132 0.24377 0.79868 1.2248 1.6256-0.83503 3.0096-0.49389 1.4369-2.0447 0.56867-2.553 0.44133-0.56339 0.70943-0.27446 1.7004 0.30339 0.98425 1.7004 1.3053-0.8703 0.25718-0.3556 0.56903-0.99836 0.40781-0.49354 2.2959-7e-3 0.9525-0.90734 0.82056-1.3152 1.2061-0.7807 0.99942 0.67451 1.5868-0.10795 2.7944 0.58068 1.9198 0.22683 2.2779 0.0589 1.6746 1.5526 0.2346 0.21802 0.72672-0.91334 0.42016-0.45121-0.0642-0.7694 0.72108-0.86678 0.91299-2.9528 0.14781-0.75212 1.0926-0.19897 0.26953-1.4316 1.2414-0.37641-2.1057-2.7732-1.1215-1.9428-0.3877-0.56056-0.47096-0.7239-0.0854-0.21872-0.22508-0.91828 0.41734-0.50236 0.68404-0.48436 1.1688-0.96979 0.0381-0.10019 0.29704-1.4467-2e-3 -0.0741-0.18908-0.91299-0.0303-0.14535-0.11995-0.54857-0.22366-0.89958-0.16545-0.39123-0.31574-0.66887-0.45579-0.81456-0.48507-1.4644-7e-3 -1.3462 0.13194-0.6597 0.0836-0.18379 0.46178-1.3215 0.0628-0.39405 0.10019-0.31221 0.50376-0.90558 0.47025-0.9398 0.19297-0.56762 0.2032-0.66005 0.0649-0.27022-0.0166-0.52317 0.16652-0.32915 0.36336-0.29315 0.28257-0.24801 0.15558-0.16086 0.0794-0.19156 0.09-0.2794 0.16439-0.66569 0.13335-0.3175 0.48366-0.43463 0.29104-0.21872 0.77259-0.67733 0.14887-0.22331 0.22225-0.51823 2e-3 -8e-3 0.41627-1.8316 0.24942-0.43426 1.1352-1.4743 1.8912-0.30727 0.82338-0.94756 0.0356-0.93769-0.54363-0.45649-0.74965-0.62795-0.0526-1.0044-0.0152-0.0963-0.3803-1.348-0.0353-0.0871 0.35948-0.68263 0.46391-0.52775-0.18486-0.39617-1.9251-0.25718-8e-3 -0.0134h-8e-3l-0.3556-0.46391-0.27552-0.58349-0.30409 0.44521-4e-3 0.0377-0.0967 0.11007-0.0847 0.12453-0.47943-0.20285-4e-3 -8e-3 -0.0109-5e-3 -0.6096-1.289-1.1017-1.0199-0.27623-0.66957-0.37747 0.21308-0.64488 1.1268-0.70802 0.31538-1.0622 0.1898-0.80222 0.0307-0.87313-0.17357-0.33231-0.63535-0.59337-0.57291-0.96944-0.39582-0.78846-0.41839 1e-3 -0.45967 0.20074-0.23919-0.13335-0.35066-0.70097-0.21695-0.48825-0.4699-0.6544-0.63148-1.094-0.74718-0.22367-0.59337-0.15451-0.4057 0.16333-1.0096-0.0931-0.25223-1.4517-0.76729-1.4774-0.84808-1.0386-0.80469-0.79798-0.79551-1.1017-0.55386-0.94932-0.49107-1.0012-0.61771-1.5635-0.63641-0.81104-0.4117-0.83573-0.29104-0.29068-0.34396-0.55351-0.32138-0.19968-6e-3 -0.56867-0.34113-0.15205-0.19262-0.20003-0.25259h-0.5207l-0.54998 0.24765-0.70026-0.25858-0.54046 0.0864-1.1518-0.0162-0.25118-0.18486-0.11042-0.3944-0.44803-0.11818-0.16298 0.32032-0.31715-0.0162-0.18309-0.2734-0.28081 0.0141-0.91264-0.0448-0.32173 0.1651-1.2989-0.21273-0.32173 0.0557-0.5902 0.27552-1.2196 0.21272-0.59796 0.41769-0.0938 0.36231-0.56656 0.35454-0.68122 0.16333-0.9786 0.26988-0.36936 0.38664-0.47237-0.0547-0.57432 0.31433-0.64946 0.0504-0.6791-0.4759-1.1698-0.39441-0.17957-0.18415 0.042-0.0646 0.0286-0.0441 0.23248 7e-3 0.58808 0.16263-0.45261-1.6341-0.92358-0.41134 3.6e-4 -6e-3 -0.0155-7e-3 0.0617-1.1469 1.3014 0.0279-0.19227-0.93133-1.3741 0.17815-1e-3 -0.0134-0.0123 1e-3 -0.0406-0.65546-1.071-0.24765 7e-4 -9e-3 -0.0145-3e-3 0.0325-0.51682-0.55315 0.14429-0.0123-0.0123-1e-3 3.5e-4 -0.4064-0.39405-0.22472-1.2435-0.67945 0.37535 0.15593 0.62019-0.81562-0.0628-0.0459 0.0395-0.23742 0.41593-0.49071 0.20778-0.0445 0.0381-0.0321 1.0873 1.3564 0.20497 6e-3 0.0116 9e-3 1e-3 0.71543 0.90135-0.48789 0.26564-0.43074 1.2231-3.501-1.3783 2e-3 -0.0106-0.0155-2e-3 0.44167-1.9805-0.36547-0.25647-0.66711-0.15558-3e-3 -0.01-0.0123-3e-3 -0.30092-0.91404 0.53375-0.91899 0.9518-0.10054 0.19932-0.58173-0.44309-0.27552-3e-3 -5e-3 -0.0113-7e-3 -0.37077-0.63288-0.81633-0.24201-0.77505 0.51435-0.7299 0.0286-7e-4 -0.0141-0.0131 3.5e-4 -0.0614-1.2968-0.32844-0.9906-0.61842-0.0406-0.46919-0.3944-7.1e-4 -3e-3 -0.0127-0.0106-0.17568-0.71861-0.51858 0.19579-0.24554 0.88265 0.38241 1.1525-0.33972 0.79128-0.64523 0.40993-0.82162-0.61348 7.1e-4 -1e-3 -0.0169-0.0123 0.2099-0.67663-0.33302-0.37359 0.23636-1.245-0.97543-0.67628-0.078 0.0226-0.46778 0.24976-0.133-0.0758-0.0233 7e-3 -0.97191 0.12947-4e-3 -0.0187-0.0123 4e-3 -0.10795-0.54927-0.57291-0.127z" fill="#ff8080"/><path d="m81.036 125.87-1.2767 0.69003 0.0039 0.0589 0.18803 0.72637-0.10724 0.55034 0.0042 0.0653 0.36759 0.91899 0.52388-0.0208 7.06e-4 0.0148 0.01482-7.1e-4 -0.01094 0.06 0.01976 0.32208-0.24765 0.91264-0.03422 0.18309-1.4563 0.21061-0.37959 0.9458-1.3466 0.20355-0.11395 2.2938-1.4757-0.0254 0.03351 0.66887-0.35031 0.19932-0.12912 1.1338-0.58667 0.13723-0.65264 0.65335-0.26635 1.6076 1.5282-0.44486 0.80962 0.32562 0.78176-0.23883 0.63288-0.0529 2.734-0.29704 0.44062-0.0632 0.67804-0.79198 1.2513 0.41839 0.0025 0.01 0.01094 4e-3 0.12347 0.46355 0.58667 0.0974-0.0028 9e-3 0.01588 3e-3 -0.29633 0.97508 1.1677 0.46531-0.0018 5e-3 0.01587 6e-3 -0.31009 0.8121-0.6089 0.41063-1.8655 0.23671-0.26917 0.399 0.39758 0.62088-0.53446 0.95674-0.67874 0.52775-0.96979 0.067-0.33196 0.30339-0.60078-0.0843-0.82973 0.19085-0.39123 0.40252 0.65299 1.464-0.2988 1.403 0.30198 0.62513-0.55633 0.8449-0.78176 0.43709-2.2945 2.0348-0.49424 0.40252-0.38312 0.68792-0.06668 0.5842-0.29845-0.0159-0.26917 0.35208-1.3829 0.68297 0.30868 0.52176 0.75389 0.0907-0.0092 0.0123 0.02364 3e-3 -0.59408 0.80997-0.28399 0.0332-0.3175 0.24977-0.02787 0.024-0.08608 0.23142-0.41063 0.19791-0.05786 0.0501-0.86642 0.88618-0.25082 0.0342-0.03351 0.0243-0.13335 0.31115-0.4191 0.09-0.03387 0.0243-0.08855 0.0494-0.21766 0.18697-0.65476 0.30057-0.20461 0.11395-0.83679 0.16898-0.9518 0.85055-0.33196 0.085 0.31715 0.70167-0.03281 0.51647-0.57891 0.39158-1.1839 0.11218-0.7045 0.40111 0.02222 0.22684 0.0046 0.018 0.12206 0.19226-0.01482 0.21732 0.01305 0.0487-0.19897 0.36477-0.58984 0.24871 0.53234 0.82973 1.0301 0.49354-0.0042 4e-3 0.02011 0.01-1.1913 1.1049-1.2682 0.10372-1.3501 0.91546-0.98425 1.9064-1.1176 0.76835-0.81915-0.0991-1.9025 1.0633-3.7987 1.39-0.01058-0.0162-0.0039 1e-3 -0.46496-0.69568-1.5272 1.4189-1.0361 1.4711-1.1585 0.88335 1.7187 3.0364-0.01976 0.3242-0.01764 1.1275-0.14429 1.5236-0.0314 0.51893 1.252 0.41522 1.79-0.69285 0.82726-0.30586 2.0697-1.3974 0.43921-0.27094 0.94721-0.4318 0.93768-0.18415 1.0664-0.1785 0.51082-0.24377 0.89288-1.2188 0.98425-0.95179 3.3846-1.5286 0.15134 0.4318-0.41416 2.0941 1.3106 1.1673-0.09984 0.66746 0.12241 0.0399-0.04304 0.40605-0.18062 0.65405 1.1772 0.0843 0.06667-0.35101 0.18662-0.30445 0.26388-0.54927 0.3175-0.41734 0.46743-0.25082 0.25823-0.28787 1.2848-1.5737 1.4831-0.95815 0.34008 0.0893 0.14393-0.133-0.0099-0.44521 0.42651-0.50059 0.80222-0.20955 0.60642-0.37712 0.02046-0.48472 0.21872-0.42509-0.06597-1.1479 0.63182-0.51682 0.57432-0.25965 0.74366-0.0744 0.33373-0.23425 0.10054-0.16651 0.60008-0.33408 0.25012 0.066 0.33373-0.19438 0.68509-0.23953 0.09948-0.21767 0.37677-4e-3 0.2406-0.23001 0.03316-0.23389 0.49459-0.42051 0.65229-0.43744 0.40534 0.10548 0.34466 0.19438 0.20496 0.32102 0.80751 0.17992 0.17815-0.16087h0.26705l0.15064 0.1838 0.23319-0.26705 0.26599-0.0825 0.60431 0.63853 0.52705 0.97931-0.30127 0.23177-0.21167 0.22225-0.26705 0.0829 0.15099 0.15063 0.58314 0.0508 1.8856 0.30092 0.4004-0.13476 0.28434 0.0505 2.5506-0.6029 0.49848-0.11924 0.4124-0.10654 0.35701-0.0963 0.64347-0.3369 0.43356-0.22225 0.49953-0.26564 0.72072-0.375 0.89817-0.22684 0.42439 0.88865 0.3683 0.27446 0.68933-0.63465 0.37148 0.40464 0.39123 0.65758 0.40675 0.23706 0.06491 0.42228-0.13547 0.30233 0.30198 0.32949 0.76165-0.37535 0.12136-1.0315 0.43392 0.0448 0.24518-1.052 1.1807-0.31714-0.0088-0.52529 1.6136-0.65546 0.95779 0.0173 1.9988-0.19192 0.57926-0.13652 0.36371-0.47202 0.1009-0.50306 1.2555 8e-3 0.39723-0.2667 0.51082-0.91687-0.091-0.11289-0.70591-0.62336 0.4579-0.99836 0.0568-0.66181 0.64699-0.13582 0.68475-0.21061 0.24094-0.35489 0.16651-0.56268-0.34501-0.46884-0.36266-1.1088 0.78846-0.33302 0.27799-0.11324 0.71155-0.29951 0.71861-0.4833 0.59055-1.0576 0.84173-1.3078-0.4445-0.65405 0.0649-0.18768 0.91122-0.20108 1.1504-0.41487 0.91581 0.30516 0.647 1.4238 0.22542-0.34325 0.84914-0.0963 0.83291-0.15029 0.15134 0.11219 1.3127 0.34113 0.44874-0.21096 8e-3 -0.91863 1.1328-0.50412 0.0476-0.31856-0.14217-1.0463 0.19685-0.53269-0.6985-0.84879-0.85478-0.0614 0.11147-0.6985-0.0416-0.078-0.48825-0.91864 0.013-0.65616-1.1388 0.0586-0.1965-0.41452-1.1486-0.93239-0.0127-0.48189-0.12383-1.0971-0.60325-0.70344-0.24941-0.35419 1.5476-0.33161 0.33444-0.0709 2.0962-0.11888 0.0914-0.0399 0.55245-0.32773 0.80045-0.35948 0.57539-0.25082 2.5728-1.27 0.88548-0.99625 1.6803-0.78916 0.73483-0.70485-2.0768-0.50271-1.2982-1.8969-1.6341-0.44944-0.7299 0.0924-2.4786 0.34326-0.36724 1.1186-3.4491 1.7822-0.34079 0.27022-1.0989-1.3081-0.88018-0.41063 0.15769-0.8382-1.1885-1.0082-1.3998 0.11889-0.38664 0.0875-1.6609-0.12489-0.28011-0.19191-1.0012-0.39581 0.0702-0.23284-1.4644 0.0243 0.11113-0.74859-0.0166-0.43321-2.0391-1.245-0.0984-0.40288-0.73061-0.0476-0.3369-0.0243 0.13088-0.4632-1.9001-0.97966 0.08255-0.68122-1.4351 0.0811-0.51611 0.4505-0.68545-0.21449-0.08114 0.0448-0.66781 0.59267-1.1998 0.44097-0.10195 0.0565-0.0067-0.0166-0.0088 3e-3 -0.53058-1.3264-0.82232-0.19685-1.0693 0.36477-1.8482-0.52352 0.0049-0.0106-0.01799-5e-3 0.47801-1.1098 0.0011-0.67557 0.91687-1.7988 0.46708-0.33372-0.1457-0.45544-0.1905 0.0307-0.96449 0.22366-0.94439 0.0787-0.20179 0.0318-0.0095-0.0145-0.0056 3.5e-4 -0.3362-0.49001-1.4633-0.63711-0.889 0.76059-0.92569-0.13265-1.198 0.70132-0.01305-0.0138-0.0021 2e-3 -0.52352-0.55704-1.608-0.2286-0.89253-0.58773z" fill="#ff0"/><path d="m222.89 162.45-4e-3 -0.0173-9e-3 3e-3 0.0854 0.21872 0.47096 0.7239 0.3877 0.56056 1.1215 1.9428 2.1057 2.7732-1.2414 0.37641-0.26953 1.4316-1.0926 0.19897-0.14781 0.75212-0.91299 2.9528-0.72108 0.86678 0.0642 0.7694-0.42016 0.45121-0.72672 0.91334-0.2346-0.21802-1.6746-1.5526-2.2779-0.0589-1.9198-0.22683-2.7944-0.58068-1.5868 0.10795-0.99942-0.67451-1.2061 0.7807-0.82056 1.3152-0.9525 0.90734-2.2959 7e-3 -0.40781 0.49354-0.56903 0.99836-0.25718 0.3556-1.3053 0.8703-0.98425-1.7004-1.7004-0.30339-0.70943 0.27446-0.44133 0.56339-0.56867 2.553-1.4369 2.0447-3.0096 0.49389-1.6256 0.83503-0.79868-1.2248-0.96132-0.24377-1.1956 0.01-1.7674 1.62-1.0192 0.19156-0.0885 0.62936 0.40746 1.5346-0.83255 0.3235-0.31468 2.262-1.7787 0.78846-0.83537-1.4891-1.1663 0.89076-0.23848 1.7184-1.9484 1.422-0.95426-0.2226-1.1419 0.84032 0.0843 1.2848 0.30656 1.0538-1.366 1.2263-0.16193 1.2164 1.5984 1.6291 0.0194 3.0096 1.2495 0.5775 2.9577-0.30692 2.0182 0.67486 2.6942 0.2914 4.1437-1.7868 0.77682-0.84455-0.63994-1.9283 0.91864-0.52634 1.1469 0.31221 0.87136-0.93204 0.39052 0.98672-0.0967 1.3014 0.63183-0.012 1.8768-0.74118 1.669 0.89993 0.59197 1.385-0.97438 1.5127-0.51576 2.8395 0.21767 0.3429 0.19473 1.5582 1.0156 1.3074-0.0663 0.17815 0.23319 0.78811 0.6731 0.43991 1.4136-0.13476 0.99554 1.4728-0.48895 1.972 1.0481 2.0006-0.88829 2.0581 0.47096 1.2746-0.16757 1.7427-1.1345 0.81174-0.33513 0.94404 0.025 0.71437 0.55986 0.77329-0.60149 0.98319-0.56056 0.86678 0.49989 1.4185 0.86677 1.1366-0.0646 0.63253-0.1658 1.6337 1.0206 1.9382 1.7734 0.97684 1.2185 1.7974 1.192 0.74013 0.43003-0.0473h0.34326l0.65616 0.0917 0.5835-0.8382 0.40252-2.4282 0.83291-0.14358 0.38382-0.38489 0.0995-1.2206 0.66781-0.3683 0.70026 0.0843 0.20073-1.3702 0.21732-1.6552 0.23318-0.93557 0.55104-0.3676 0.80081-1.3381-0.0441-1.4489 0.59055-0.29951 0.25506-0.75847-0.35913-0.74789 0.25823-0.6223-0.17533-1.0509-0.93274-0.27658-2e-3 -9e-3 -0.0141-4e-3 -0.24447-0.70767 0.0296-0.32561-0.0713-0.32456 0.11853-0.19014 3e-3 -0.0332 0.18979-0.27516 0.13053-0.20885-0.43392-0.83961-0.0593-0.097 0.46038-0.75636-0.3115-1.0185-1.7032-1.2322-3.6e-4 -3e-3 -0.0138-0.01-0.18732-1.3102 0.98672-0.33161 0.61277-0.508 0.14464-0.35348-0.1337-0.43145-0.0279-0.0508 0.24941-1.1839-0.27022-0.2219 1e-3 -2e-3 -0.0145-0.0116 0.37077-0.94192 0.58208-0.0822 1.0943-0.78987 2.4084-0.17569 0.56904-0.35983 0.64875 0.45226-3.5e-4 7.1e-4 0.0173 0.012-0.31821 0.72073 1.331 1.8443 1.282 0.48718 0.89288-0.76658-0.10055-1.1201 0.53446-0.71896 0.93733-0.59302 0.49707-0.19297 3e-3 0.0201 0.0113-6e-3 0.16968 1.3233-1.0213 0.26599 0.0836 0.85267 0.90417-0.0325 1e-3 0.0145 0.013-3.6e-4 0.0822 1.0534-0.43145 0.38488 0.0184 3.4315 0.90981 2.582-0.44556 0.45438 0.0296 0.65334 1.9399 0.86254 4e-3 9e-3 0.0102 5e-3 2.1728 4.2859 1.0407 1.0682 0.508-0.41946 1.3222 0.94439 1.5289-0.0765 0.94297 0.61207 1.2601-0.0258 1.9473-1.3645 0.0113 0.0141 2e-3 -2e-3 0.63712 0.79057 1.6069-0.11994 0.0854-0.97614 0.59832-0.47166 0.0885-0.87807-0.60113-0.11465 5e-3 -8e-3 -0.0187-4e-3 0.51329-0.92745-0.29916-0.6671 0.78952-0.86007 1.9791 1.2785 0.82621-0.53199 1.5801-0.46249 1.1183-1.2859 2.5527-0.18768 0.61877-1.077 1.1723-0.58596 0.01 0.0155 4e-3 -2e-3 0.80609 1.3152 0.94404-0.10054-0.23354-0.61842 1.0516-0.3683 0.0102 0.0131 2e-3 -1e-3 1.596 2.0274h0.99378l3.5e-4 0.012h0.0134l0.0194 0.73837-0.70062 0.73518-0.26881 1.0326 1.1536 0.82515v1e-3l0.0152 0.0109 0.085 0.98566-0.46884 0.45403 0.4131 1.0478 1.9865 0.4191 1.5529 0.77787 1e-3 6e-3 0.0148 7e-3 0.30656 1.5621-1.0206 1.6404 1.6856 0.94191 0.84702-0.9084 0.89676 0.17145 1.6178 0.11747 0.37676-0.0406 1.0358-1.3102 0.0822-0.1337 0.0755-0.0692 1.0739-1.4153 0.0413-0.0843-0.13088-0.79657-0.5782-0.39617-2e-3 -5e-3 -0.0127-8e-3 -0.58243-1.8496-0.0434-0.03-0.75918-0.44414-0.0579-0.1263-1.5039-1.0488-2e-3 -6e-3 -0.0134-8e-3 -0.52458-1.452 0.24941-1.5875 1.119-0.78599-0.36054-1.4026 1.028-0.68651 0.58384 0.38418 0.70027-0.75177-0.24906-1.1539 0.33337-0.30092-0.46002-0.9532-0.59231 0.24694-7e-3 -0.0166-0.01 4e-3 -0.5147-1.1994-0.65335-0.32526-1.4862 0.45085-0.25047 0.55033-1.0188 0.085-6e-3 -0.0127-7e-3 3.5e-4 -0.27693-0.57044-1.1737 0.055-2e-3 -0.0141-0.0113 7.1e-4 -0.15311-1.1282-0.97649 0.0702-4e-3 -0.0148-0.0127 7.1e-4 -0.11394-0.45861 0.63676-1.67-0.52282-0.89394 0.37289-1.3444-0.41734-1.1197 0.60114-0.51823 0.10019-1.4549-0.75848-0.95638 1.1762-0.43004 1.2841-1.6051-0.31715-0.68544 0.81844-0.16687 0.0494-0.0956 0.25612-0.81386-0.049-0.51011-0.17392-0.66958 0.066-0.45085-0.0201-0.20496 0.0483 0.01 0.0187-0.12805 1.4732 0.40604 3.2198-1.705 0.10548-0.0162 0.13264-0.0695 0.11606 0.031 0.18027-0.0279 1.5681 0.4833 0.30092-1.0026 0.33338-0.30057 0.34995-0.24976 7e-3 0.0162 6e-3 -5e-3 0.95885 1.6118 0.2152 0.24659-0.67345 1.4834-0.0956 0.25577 0.16651 1.179 0.58738 0.5341 0.8703-0.56762 0.72813 0.57609 0.76095 0.895 0.0219 0.0215-0.19015 0.59866 1.36 0.60784 0.64523-0.64029 0.76129 0.73518 0.79587-0.34501 0.11642-0.6858 0.15981 0.0166 0.0113-0.0286 0.12629 0.0427 0.5207 0.0533 1.3007 0.55986 0.28575 0.096 1.0516-0.34396 0.18204-0.078 1.9854 1.6041 0.10583-0.0875 0.54257-0.60572 0.0695-0.22613 0.63394-0.2166 0.33408-1.2545-0.20073-0.91828 0.0769-0.14429 0.51364-1.2516 0.06-0.30657-0.15699-0.94544-0.0765-0.37818 0.40075-1.0506-2.7224-2.1625-1.3533 0.381-0.24095 0.0148-0.87771 0.11606-0.30656-0.0423-0.0505 3e-3 -4e-3 -0.0109-0.0127-1e-3 -0.0325-0.13406-0.38241-1.1472-0.0642-0.12136-0.11465-1.4919-0.59267-0.95567 0.78035-0.51753 0.28328-1.2206 0.78387-0.26705 0.1845-0.93804-0.95532-1.0139-0.14393-0.1524-0.0134-0.0145 2.3802-1.6263 0.16687-0.81915-0.0123-0.0399-1.1691-2.2839-0.0374-0.0593 1.5402-1.1825 0.47942-1.2316-0.133-0.96943 0.48366-0.50165 0.21731-1.3875-0.2667-0.60184 0.0826-1.1529-0.49988-1.2372 0.55068-0.7687 0.0829-1.1197 0.46707-0.53551 0.16757-0.91864-0.25047-0.48542 0.36336-0.52881-0.0448-0.0198-0.95285-0.28681-0.56868-0.40781-1.3328-0.71931-1.0968-0.39723 0.11783-1.2058-0.145-0.16369-1.5646-1.7456-1.0509-0.0628-0.60043 0.70273h-1.1021l-1.1183 2.2423-0.019 1.082-0.99871 0.23671-0.26635 1.0202 0.67521 1.1966-1.3607 0.2988-2.0214-0.56162-0.88935 0.0783-0.254 1.0075-0.12312 0.98037-0.25858 0.53551-0.11642 0.46179 0.34361 0.81562 7e-3 1.2114-2.2126 0.31891-0.33761 0.25753-0.47272 0.40111-0.72108 0.50976-0.45297 0.34608-0.97437-0.0572-0.0409 0.0127-0.28399 0.23495-0.52458 0.0159-0.0794 0.0243-1.168 0.57397-8e-3 -0.0166-6e-3 3e-3 -0.45861-0.58385-0.33866-1.0619h-2.1049l-1e-3 -0.0127h-0.0152l-0.11677-1.1366-1.2672-1.1871-0.98989-0.92463-0.67487 0.254-1.0432-0.29527-3e-3 -9e-3 -0.012-3e-3 -0.3436-1.0135-2.2377 0.2607-0.0423-0.0208-0.72285-0.22119-0.71825-0.46849-1.5445-0.76447-0.76412-0.37218v-6e-3l-0.0162-8e-3v-1.7092l-0.39546-0.51858 1.1465-1.9865-0.066-1.1811-1.1889-0.72707 4e-3 -3e-3 -0.0169-0.0106 0.61736-0.53516-0.11359-0.4893-1.3056-0.0452-0.3877 0.34537-0.44768 0.16157-0.47448 0.28963-0.11325-0.0776-0.0811 0.0289-2.6712-1.9163-0.16827-0.11501-1.8147 0.11007-0.0134-0.0145h-1e-3l-0.37253-0.40005-1.8969-0.25753-4e-3 -0.0138-0.0116-2e-3 -0.1972-0.68263-1.059 0.0656-0.57362-0.55139-0.29633 0.0296-0.61207 0.22472-0.89253-0.0522-0.85901 0.67486-0.78634-0.0734-7e-3 -0.0145-7e-3 -7e-4 -0.26212-0.57186-0.72672-0.20038-0.2346 0.12171-0.66604 0.40464-1.2972 0.61313-0.38841 0.20108-3e-3 -0.0159-0.01 5e-3 -0.19967-0.85443-0.80751-0.50447z" fill="#f60"/><path d="m118.66 118.36-1.1246-0.369-0.14394 0.17991-0.37571 0.56692-0.52281 0.55809-0.13829 0.17286-0.0589 7e-3 -0.39793 0.1651-0.6103-0.0459-0.0571 6e-3 -3e-3 -0.0109-0.0134-1e-3 -2e-3 -0.06-0.19579-0.76447-0.0102-0.0145-0.67557-0.15699-0.23918 1.2033-1.0513-0.17286-0.53093 0.34783-3e-3 0.0166 0.12029 0.28575-0.25117 0.42157-0.0102 0.0554-1.476 0.8569-0.0914 0.0603-0.53939 0.49671-0.67452 0.30551-0.0924 0.061-0.40958 0.39546 0.23636 0.72602 0.45544 0.0162 0.36583-0.28011 0.86501 0.50447-1e-3 2e-3 0.0162 0.01-0.41275 0.98707-0.48401-0.24024-0.46461 0.19932-0.0106-0.0152-4e-3 1e-3 -0.38418-0.52775-0.35489 0.25999 0.17886 0.4445 0.49071 0.37606 0.25753 0.55034 0.0215 0.0261-1.3197 1.718-0.94369 0.11748-0.01-0.0109-5e-3 7e-4 -0.44591-0.53551-1.6796-0.83573-0.70626 1.4044 0.59055 0.0561 1.3822 0.75706-5e-3 6e-3 0.0212 9e-3 -0.56409 0.73095-0.89253 0.19262-0.5274 1.1596-2.2677 1.1673-1.9551-0.31433-0.51612-0.41733-0.60113 0.0335-0.08255 0.68122 1.9001 0.97966-0.13088 0.4632 0.3369 0.0243 0.73061 0.0476 0.0984 0.40288 2.0391 1.245 0.0166 0.43321-0.11113 0.74859 1.4644-0.0243-0.0702 0.23284 1.0012 0.39581 0.28011 0.19191 1.6609 0.12489 0.38664-0.0875 1.3998-0.11889 1.1885 1.0082-0.15769 0.8382 0.88018 0.41063 1.0989 1.3081 0.34079-0.27022 3.4491-1.7822 0.36724-1.1186 2.4786-0.34326 0.7299-0.0924 1.6341 0.44944 1.2982 1.8969 2.0768 0.50271 0.32421-0.11395 0.72284-1.9216 1.5649-0.4385 0.33479-0.56233 2.244-0.80716-0.56197-1.0008 0.59972-0.52317 0.5013-0.47378 1.215 0.73519 1.5399-0.81703 0.21766-0.51365 0.91723-0.40922 0.28998-0.25223-0.87277-1.7967 0.56762-1.0185-0.34714-0.7553-0.60642 0.18697 0.31397-1.9741-2.3414 0.0646-0.0116-0.61278-0.53798-0.84702-0.0716-0.29104-1.0534-0.62618 0.0508-0.79975-0.75389-0.0705-0.63323-0.98178-1.0858 0.12559-0.0699 1.6055-1.3945 1.493-0.49883-0.14216-0.4699 0.24482-0.0723-0.29174 0.14958-0.33444-0.16651-1.2538-2.2814-0.55316-0.86289-0.52352-1.1388-0.69215-5e-3 1e-3 -1.5752 0.59443-0.59796-0.0811-0.0116-0.0113-4e-3 -3.5e-4 -1.7223-1.5649-0.72284-0.77999 0.0794 8e-3 1.8302-0.1778 0.0624-0.0219 0.45015 0.11747 0.15063-0.31679 0.20038-0.0508 0.38347 0.20002 0.16616-0.68509-0.0191-0.0247-0.98319-1.0622 1e-3 -1e-3 -0.0162-0.0131 0.92287-0.889-0.53164-0.46391z" fill="#800080"/><g fill="#808000"><path d="m60.995 175.04-0.98425 0.95179-0.89288 1.2188-0.51082 0.24377-1.0664 0.1785-0.93768 0.18415-0.94721 0.4318-0.43921 0.27094-2.0697 1.3974-0.82726 0.30586-1.79 0.69285-1.252-0.41522-7.06e-4 7e-3 -1.0619 1.3861-0.26952 1.4693-0.387 0.40287 0.20673 0.91369 1.1578 1.2104-0.07408 0.133-0.49848 1.2502-0.34925 0.27375-0.0261 0.0469-0.06244 0.0582-0.24836 0.37959-0.82973 0.623-0.14217 0.13229-1.0329 0.0917-0.71543 0.66922 0.16616 0.38417-0.50236 0.48825-0.89958 0.21343-0.34996 0.70167-0.55139 0.31926-2.5446 1.5674-1.8027 0.9532-0.44168 0.25612-0.10019 0.4325-1.9025 1.7071-0.18415 0.18838-0.7814 0.9338-2.2856 2.2059-0.43674 0.44732-1.1511 0.62054-2.467 2.4052 0.54751 0.55492 1.7709 1.7893 0.15099 0.15734 0.16722 0.16933-2.6067 2.9415-0.95568 2.3936-1.4048 1.3155-0.12559 0.97402 0.70802 1.216-1.1938 1.9343 0.0039 4e-3 1.7099 0.68897 0.0762 0.024 0.0092 0.0106 0.0067 3e-3 0.77152 0.90593 0.52529 0.0543 0.01482 0.0138h0.0014l1.2986 1.1783 0.51223 0.46426 0.51082-0.17498 0.0071 0.018 0.0092-3e-3 0.65299 1.1518-0.60113 0.53587-0.09525 0.69815-1.106 1.1077-0.04163 0.0688-0.0078 0.17886-0.45579 0.83079-0.42757 0.49742 0.91969 1.1984 1.7808 0.7941 0.31574-0.2032 0.34255-0.47166 0.31574-0.49706 0.4833-0.51929 0.32314-0.75212 0.39899-1.1437-0.79798-0.32032 0.12488-0.60713-1.3187-0.61489 0.0822-0.47872 0.3496-0.18239 1.8658 0.99236 0.8509-1.0918 0.38488-0.3937 0.8763-1.2488 0.63077-0.53445 0.2667-0.0134 0.6156 0.22578 0.2219-0.42969 0.29034-0.16862-0.02787-0.67346 0.48366-0.70273 0.07056-0.75106 0.35701-0.21696 0.58208-0.34467 0.12559-0.22083 0.4064-0.50201 0.22507-0.41381 0.8128-0.60325 0.34996-0.5274 0.4198-0.35101 0.2787-1e-3 1.5586-0.27905 0.37183 0.0282 0.3817 0.32703 0.45861 0.15734 0.48366-0.1196 0.11889-0.21096 0.67134-0.48895 0.8569-0.14252 0.74965-0.25964 0.39194-0.40781 0.29457 0.0772 0.10195-0.0857 0.02434-0.53869 0.53305-0.47061 0.45508 0.0145 0.17533-0.19685 0.27764-0.70909 0.54292-0.17603 0.51788-0.8128 0.35701-0.21167 0.70873 0.1404 0.8128 0.60325 1.2407 0.0212 0.86854-0.49107 0.3436-0.32279 0.40887-0.0395 0.32032-0.0102 0.54786 0.44062 1.0739 0.36724 0.70802 0.20144 0.55033 0.15593 1.2753-0.0487 0.1898 0.0984 0.51153 0.0561 0.78493 0.25964 0.75 0.3937 0.60254 0.51929 0.46214 0.33691h0.51858l0.35031-0.24589h0.3997l0.46214 0.24589 0.46355 0.5334 1.0301 0.51893 0.57397 0.0501 0.71543 0.2039 0.84067 0.16087 1.0936 0.16827 0.14676 0.52741 0.28751 0.19649 0.71473 0.16793 0.34361 0.58243 0.35772 0.16863 0.78493 0.15311 0.06985 0.35277 0.83432 0.26706 0.44803-0.0984 0.40675 0.41416 0.01446 0.37853 0.19579 0.18944 0.31574-0.0621 0.22401 0.25189 0.13617 0.39864 0.43286 1.0816-0.35878 0.52741-0.09137 0.37253-0.2667 0.20391-1.0647-0.0776-0.35066 0.16122-0.36442-0.14746-0.63041 0.0423-0.51858 0.11006-0.45544-0.1524-0.09172 0.0773 0.6604 0.80575 0.81562 0.75741 0.13617 0.37888-0.01164 0.54434-0.29492 0.7881 0.13899 0.30622 0.33373 0.31714 0.34466 0.68474 0.30621 0.18451 0.68439-0.1009 0.34854 0.0339 0.60254 0.73589 0.11642 0.21696 0.05292 0.29387-0.0187 0.79233 0.2166 0.83715 0.02787 0.56691 0.2727 0.33408 0.48966 0.2787 0.57785 0.59125 0.12171 0.3676 0.12912 0.73554 0.11606 0.35172 0.25718 0.2674 0.52211 0.5715 0.48401 0.39476 0.12241 0.28646-0.01693 0.33372 0.32597 0.7299 0.15804 0.2406 0.21661 0.21766 0.08431 0.14993-0.03422 0.1845 0.10054 0.26706 0.24236 0.17956 0.14111 0.27129 0.08361 0.98671 0.09984 0.23354 0.43427 0.33373 0.38382 0.55245 0.27693 0.56797 2.2363-1.1694 0.24977 0.13828 0.75318-0.17991 1.621-1.2446 0.63041-1.7459 1.1716-0.24059 1.1896-1.7166 2.3714-1.8299-0.79234-1.7681 0.38312-0.80504 1.118-1.2012-0.35913-1.8461-0.16863-0.87031-0.13335-0.68156-0.83926-0.97543 1.0262-2.9386-0.92357-2.1685 1.5924-0.20496 0.57891-1.0022-0.387-2.2574-0.08925-0.52176 0.93627-1.8344 0.52776-1.0315-0.1778-0.66076-0.53587-1.9928-0.9398 0.6163-0.51259 0.86678-0.95038 0.3623-0.34749-0.93733-1.071 0.73942-1.5406 1.0146-0.40499 1.2696-1.5949 0.89994-0.36795 0.70414h-2.4024l-1.3593 0.9592-0.49706 0.89923-0.47942 0.86784-0.29951 0.54186-1.9653 0.77894-0.22542-2.201 0.30021-0.88406-0.96767-1.2016-0.13935-0.29562-0.2286-0.30904 0.17462-0.34642-0.31962-0.11677-0.36936-0.13441-1.0802-0.52247-1.3109-0.35101-0.44697 0.58173-0.47907-0.12947 0.12735-1.0202-0.53622-0.23848-0.40393 0.84455-1.3755 1.6196-0.58067-0.0416-0.47837-1.0344-0.41063 0.0677-0.1464-0.62547-0.32879 0.0272-0.69003-1.173 0.67486-1.2721 0.48048 0.29563 1.0848-0.28893 0.27305 0.0289 0.05009 0.38453 0.1838 0.0505-0.08431 0.35101 0.15064 0.10019 0.13335 0.0663 0.16722-0.40146-0.06632-0.16651 0.127-0.35348 0.08079-0.0896 1.1098-1.2781 0.266-0.0603 0.13406-0.0857 0.47519-0.22472-0.24836-0.78105-0.68086 0.64875-0.84138-0.57432-0.38276-0.56338-0.07056-0.1644-0.64452-0.32596-0.60113-0.0113-0.09737 0.16651-0.34572 0.39793-0.25788-0.0765-0.27622-0.0857-0.26635-0.56197-0.39123-0.14993-0.10936 0.37959 0.05009 0.23918-0.8061 0.34678-0.25859-0.10089 0.25753-0.68757 0.1143-0.78175-0.1524-0.59443 0.29739-0.66746-0.33091-2.5774 0.3623-0.53411 0.07232-0.28469 0.79587-0.025 0.56021-0.99765 0.93274-0.0409 0.3369 0.33938 0.2099 0.1143 0.84631-0.43815 0.22472-1.0615-0.41628-0.27235 0.73342-0.86959 0.43568-0.34608 0.5147-0.73448-0.06562-0.22261 0.33267-0.48506 1.2457-1.3025 0.24236 0.17039 0.6865-0.76129 0.0568-0.29881 0.29351-0.90593-0.61066-0.73166-0.52035 0.18309-0.64452-0.13793 0.2286-0.80293 0.84384-0.38629 0.58138-1.1843 1.1331-0.72355 0.37289-1.2809-0.36724-1.1712 0.40464-0.7493 0.79869 0.4512 0.77364-0.63358-0.41663-0.85796-0.70979-0.96097 0.5207-1.2816 0.43039-0.51893-0.10125-0.13406-0.76906-1.0354-0.67028 0.25788 0.37218 1.361-0.55915 0.1584-1.1677-1.9876-0.72849-0.25788-0.16969-1.1158-1.2248 0.74295v0.25012l-0.61877 0.55669 1.1314 0.58173 0.58102 0.77646-0.21908 0.77117 0.73554 0.70097-0.62195 0.56198-0.68368 1.0499-0.13617 0.90452 0.11642 1.1638 1.3822 0.37007-0.32491 0.63111-0.27376 0.18909-0.25294 0.83397-0.34819 0.54046-0.31856-0.3228-1.6478 0.61878-0.74754-0.70944-0.62336-0.10583-0.58702 0.57785-1.0266 0.45826-0.45544-0.33655-0.17462-0.15276-0.94403-0.33831-0.83397-0.7613-0.30692 0.29246-0.2473-0.27693 0.5976-0.76095-0.42051-0.1651-0.55457-0.54186-0.49706 0.49389-0.50553 0.0328-0.49459-0.37395-0.27376 0.0949-0.29986-0.11748-0.78811 0.055-2.4843 1.2467-0.29916 0.28681-0.38347 0.0166-0.19156 0.13476-0.67486 0.061-0.29139-0.31115-0.33302-0.35524-0.04022-0.24871-0.02575-0.46708 1.4175-1.1448 0.59126-0.32526 0.3489-0.0847 0.13406-0.18486 0.26529-0.14217 0.24906-0.47589 0.25259-0.0836 0.23424-0.25047 0.39582-0.12524 0.79022-0.97296 0.58244-0.33973 0.2861-0.0515 0.49777-0.58314 0.35101-0.11748 0.45826-0.37782 0.17533-0.49072-1.1772-0.0843 0.18062-0.65405 0.04304-0.40605-0.12241-0.0399 0.09984-0.66746-1.3106-1.1673 0.41416-2.0941-0.15134-0.4318zm7.0997 15.932 0.33584-0.5401 1.2827-0.1778 0.78493-1.2605 0.47166-0.68403 0.53128-0.84067 0.33902-0.26847 0.62195 0.95356 0.2787 0.25471 0.26882 0.22013 0.54857 0.66322-0.90699 1.422-0.15663 0.22613 0.12453 0.17568-0.22648 0.30339-0.60043-0.17498-0.74718-0.51152-0.61136-0.25753-0.62794 0.18027-0.35384 0.44908-0.29704 0.0741-0.76094 0.10971zm-1.6962 0.60607-0.56762-0.83396 1.4242-1.6394 0.75918 0.32279-0.11183 1.0273-0.80433 1.2393zm-34.762 31.243 0.26247-0.24483 0.69321 0.56304-0.99378 0.26317z"/><path d="m82.524 170.68-0.41698 0.38523-0.15381 0.36618-1.639 1.0058-0.9144 0.56198-0.18062 0.23847 0.03351 0.25118-0.99836 0.8569 1.4774 0.7881-0.19297 0.87595 1.4517 1.5921-0.90452 0.83961 0.75706 0.50165 0.53093-0.63606 0.92181 0.4131 0.39017 1.3931-0.54539 0.56127 0.31044 0.49354 0.87383-0.65299 0.40675-0.53658 0.06773-0.11888 0.10866-0.0977 0.3803-0.42545-0.28187-0.93134 0.7299-1.3077 0.5147-0.0681 0.46849-0.64382-0.07338-0.33584-0.3235-0.4371-1.1299 0.64347-0.58455 0.0155-0.4004-0.0871-0.43004-0.32385-0.3616-0.51365-0.06562-0.43885 0.40111-0.37077 0.52987-0.58738 0.57503-0.28504 0.2727-0.44133-0.21943-0.89217 0.07479-1.4704-1.2573-0.54681z"/></g><g fill="#008000"><path d="m91.991 168.15-0.72072 0.375-0.49953 0.26564-0.43356 0.22225-0.64347 0.3369-0.35701 0.0963-0.4124 0.10654-0.49848 0.11924-2.5506 0.6029-0.28434-0.0504-0.4004 0.13476-1.8856-0.30092-0.58314-0.0508 0.0025 0.30268 1.2573 0.54681-0.07479 1.4704 0.21943 0.89217 1.7611-0.82444 1.0739-0.54786 0.53975 0.10513 0.59761 0.82655-0.01587 0.33585-0.68121 0.65828-0.59478 0.61454-0.54645 0.49318-0.38559 0.073-0.22684-0.1457-0.08855 0.096 0.07197 0.3048-0.3115 0.39969 0.3235 0.4371 0.07338 0.33584 0.55915 0.30868-0.64805 0.64841-0.37959-0.31327-0.5147 0.0681-0.7299 1.3077 0.28187 0.93134-0.38029 0.42545-0.10866 0.0977-0.06773 0.11888-0.40675 0.53658-0.87383 0.65299-0.31044-0.49354 0.54539-0.56127-0.39017-1.3931-0.92181-0.4131-0.53093 0.63606-0.75706-0.50165 0.90452-0.83961-1.4517-1.5921 0.19297-0.87595-1.4774-0.7881-0.4198 0.26282-0.24448 0.32455-0.8703 0.66958-0.38664 0.1591-0.03351 0.21766-0.11748 0.20073-0.17674-0.024 0.16969 1.1158 0.72849 0.25788 1.1677 1.9876 0.55915-0.1584-0.37218-1.361 0.67028-0.25788 0.76906 1.0354 0.10125 0.13406-0.43039 0.51893-0.5207 1.2816 0.70979 0.96097 0.41663 0.85796-0.77364 0.63358-0.79869-0.4512-0.40464 0.7493 0.36724 1.1712-0.37289 1.2809-1.1331 0.72355-0.58138 1.1843-0.84384 0.38629-0.2286 0.80293 0.64452 0.13793 0.52035-0.18309 0.61066 0.73166-0.29351 0.90593-0.0568 0.29881-0.68651 0.76129-0.24236-0.17039-1.2457 1.3025-0.33267 0.48506 0.06562 0.22261-0.5147 0.73448-0.43568 0.34608-0.73342 0.86959 0.41628 0.27235-0.22472 1.0615-0.84631 0.43815-0.2099-0.1143-0.3369-0.33938-0.93274 0.0409-0.56021 0.99765-0.79587 0.0251-0.07232 0.28469-0.3623 0.53411 0.3309 2.5774-0.29739 0.66746 0.1524 0.59443-0.1143 0.78175-0.25753 0.68757 0.25859 0.10089 0.8061-0.34678-0.05009-0.23918 0.10936-0.37959 0.39123 0.14993 0.26635 0.56197 0.27622 0.0857 0.25788 0.0765 0.34572-0.39793 0.09737-0.16651 0.60113 0.0113 0.64452 0.32596 0.07056 0.1644 0.38276 0.56338 0.84138 0.57432 0.68086-0.64875 0.24836 0.78105-0.47519 0.22472-0.13406 0.0857-0.26599 0.0603-1.1098 1.2781-0.08079 0.0896-0.127 0.35348 0.06632 0.16651-0.16722 0.40146-0.13335-0.0663-0.15064-0.10019 0.08431-0.35101-0.1838-0.0505-0.05009-0.38453-0.27305-0.0289-1.0848 0.28893-0.48048-0.29563-0.67486 1.2721 0.69003 1.173 0.32879-0.0272 0.1464 0.62547 0.41063-0.0677 0.47837 1.0344 0.58067 0.0416 1.3755-1.6196 0.40393-0.84455 0.53622 0.23848-0.12735 1.0202 0.47907 0.12947 0.44697-0.58173 1.3109 0.35101 1.0802 0.52247 0.36936 0.13441 0.31962 0.11677-0.17462 0.34642 0.2286 0.30904 0.13935 0.29562 0.96767 1.2016-0.30021 0.88406 0.22542 2.201 1.9653-0.77894 0.29951-0.54186 0.47942-0.86784 0.49706-0.89923 1.3593-0.9592h2.4024l0.36795-0.70414 1.5949-0.89994 0.40499-1.2696 1.5406-1.0146 1.071-0.73942 0.34749 0.93733 0.95038-0.3623 0.51259-0.86678 0.9398-0.6163 1.4016-0.80292 1.1889-1.8641 1.0407 0.39829 1.245-1.0442-0.42792-3.7737 0.95603-0.42651 0.03104-1.1412 0.8823-4e-3 0.42792 0.71261 1.421-0.77823-0.0515-1.5946 0.0314-0.18098v-7e-4l0.18838-1.0957-1.7667-0.65864-0.21766-0.0825 0.21166-1.1123-2.8681-0.87383 0.24448-2.2416-0.48507-1.3854-0.29528-0.54258 0.74542-1.4213-0.06279-0.41134 1.0118-1.7988 0.0049-0.85055 0.56868-0.83396-1.5889-1.4365 0.82303-0.88335 1.2545 1.0992 1.2206-1.1444-0.26282-1.7159-0.0723-0.47589-0.66851 0.10936-0.40041-0.5835-3.0988 0.43286-1.4005-0.74119-0.98954 0.0187-0.53516-0.49036-0.38382 0.10901-0.35807 0.43674-1.2771-0.14006-0.4445-0.11782 0.90064-1.0301 0.1076-0.76095 0.34819-0.45473-0.41416-0.95708 0.2286-0.895-0.32279-1.04-0.4826 0.0145 0.02187-0.22472 1.6387-0.901 0.46567-0.50165-0.08008-0.85125-0.3683-0.27446-0.42439-0.88865zm-4.7039 8.3467-0.22225-0.97049 1.2308-0.25153 0.13018 0.72742-0.83961 0.59302z"/><path d="m71.499 187.46-0.53128 0.84067-0.47166 0.68403-0.78493 1.2605-1.2827 0.1778-0.33584 0.5401 0.29916 0.31644 0.76094-0.10971 0.29704-0.0741 0.35384-0.44908 0.62794-0.18027 0.61136 0.25753 0.74718 0.51152 0.60043 0.17498 0.22648-0.30339-0.12453-0.17568 0.15663-0.22613 0.90699-1.422-0.54857-0.66322-0.26882-0.22013-0.2787-0.25471-0.62195-0.95356z"/><path d="m65.829 190.74 0.56762 0.83396 0.69956 0.11607 0.80433-1.2393 0.11183-1.0273-0.75918-0.32279z"/><path d="m73.1 178.98-0.23989 0.38876-0.27129 0.17251-0.26317 0.16193-0.08325 0.20002-0.30021 0.0843-0.41028 0.34714-0.8516 0.92745-0.75847 0.34466-0.33302 0.0508-0.27799 0.22719-0.86678 0.84138-1.4894 1.5265 0.55457 0.54186 0.42051 0.1651-0.59761 0.76095 0.2473 0.27693 0.30692-0.29246 0.83397 0.7613 0.94403 0.33831 0.17462 0.15276 0.45544 0.33655 1.0266-0.45826 0.58702-0.57785 0.62336 0.10583 0.74754 0.70944 1.6478-0.61878 0.31856 0.3228 0.34819-0.54046 0.25294-0.83397 0.27376-0.18909 0.32491-0.63111-1.3822-0.37007-0.11642-1.1638 0.13617-0.90452 0.68368-1.0499 0.62195-0.56198-0.73554-0.70097 0.21908-0.77117-0.58102-0.77646-1.1314-0.58173z"/></g><g fill="#0ff"><path d="m197.93 251.85-0.20955 0.30092-0.37677 0.16299-0.95955 0.38417-0.40287 0.43568 0.14993 1.0065-0.20497 0.79763-0.52881-0.13053-0.11289 0.68721-0.29951-0.0212-0.0635 0.29386 0.19579 0.0632 0.1397 0.27375-0.0628 0.63712 0.28681 0.5401 0.31856 0.2861 0.18591 0.15558 0.39864 0.79163-0.043 0.53305-0.10442 0.49742-0.16863 0.1464-0.21625-0.18168-0.091-1.1356-0.16757-0.44098-0.5394-0.4699-0.58737-0.41275-0.18909 0.0282-0.4893 0.46849-0.8255 1.192-0.42263 0.20602 2e-3 4e-3 0.0141 7e-3 0.0483 0.13511 0.15134 0.34784 0.10795 0.38135 0.0582 0.16228-0.19862 0.56832 0.44027 0.32068 7e-4 2e-3 0.0152 0.0113 0.43709 1.7946 0.53446 0.0956 0.14429 0.17391-5e-3 3e-3 0.0215 8e-3 -0.0575 0.0201-0.30762 0.24236-0.35842-8e-3 -0.0328 0.0113-1.1688 1.8214-0.0984 1.0679 0.65193-0.24483 0.54998 0.0847 0.15064-0.61913 0.77929-0.33831 0.35806 0.0473 0.0586-0.0162 0.0162 0.0261 0.12736 0.0169 0.26246 0.59549 0.0247 0.0385 0.91016 0.2152 0.14923-0.41804 1.0862 0.0935-2e-3 0.0124 0.0166 1e-3 -0.18627 1.0756 1.4231 0.30198 0.94369-0.46073 0.0191-1.4055 0.92498-1.3314 0.15804-1.4679 0.77294-0.16263 0.68404-0.95144 0.0896-0.26458 0.26917-0.98284 0.0226-0.13335-0.56198 0.25541-7e-4 -0.0194-0.0131 6e-3 -0.0568-1.016-1.0139-0.4004 7.1e-4 -7e-3 -0.0159-6e-3 0.0286-0.42651-0.49742-7e-3 -0.62794-0.40887-0.14958-0.0265-0.49389 0.0639-0.57432-0.25047-0.0198-4e-3 1e-3 -5e-3 -0.0166-7e-3 0.27588-0.75847-0.46743-0.43427 0.1023-0.4953-0.10371-0.77823-0.0635-0.375-0.0529-0.0208-1.1356-0.3182-0.13124-0.18627 0.037-0.0437 0.23001-0.5454 0.0332-0.12982 0.75071-0.14958 0.11747-0.55174 0.19333-0.0138 0.31432-0.20638 0.043-0.1979 0.3242-0.084-0.23389-0.65334-0.0314-0.054z"/><path d="m192.92 199.58-1.1469-0.31221-0.91864 0.52634 0.63994 1.9283-0.77682 0.84455-4.1437 1.7868-2.6942-0.2914-2.0182-0.67486-2.9577 0.30692-1.2495-0.5775-0.8008 0.3048-1.3593 1.0901-1.4598-1.106-1.41 0.44838-1.0428-0.93486-2.177-0.38029-0.86536 0.96273-0.27199 2.0698 0.22507 1.1628-2.0031 0.45826-0.41698 0.5274-1.9794 2.7351-2.9415 0.10019-2e-3 3.4819 1.9706-0.64099 0.91545-0.11007 0.19509-0.0519 0.018 0.0261 0.12277-0.0148 0.30268 0.63818 0.024 0.0353 0.5521 0.30022 3.5e-4 4e-3 0.0134 7e-3 0.0561 0.65053-0.44662 0.81315 0.80328 1.8098-0.28011 0.44697 0.39088 0.8382-0.46743 0.77223 7e-3 0.0328 0.25753 0.56338 0.16052 1.3148 0.0243 0.11112-0.46426 0.75353 7e-3 0.12171 0.13335 0.79622-0.0346 0.85619 8e-3 0.12806-0.40711 0.35842-0.20602 0.36548-0.52282 0.27658-0.0628 0.0554-0.0441 1.2979-0.91898 0.2847 1.8549 3.1058-0.77787 0.44309-6e-3 0.84067 1.2587 0.31115 4e-3 0.0106 0.0102 2e-3 0.32385 0.98743 1.8348 0.57538 0.0123 0.0145l0.52211 0.62019 1.3307-0.0494 4e-3 0.0134 0.0102-7e-4 0.51259 1.759 1.7148 1.6954 0.23354 1.0442 1.7688 0.87877-2e-3 4e-3 0.0169 8e-3 -0.62265 0.90805 0.97754 0.82726 3.6e-4 2e-3 0.0141 0.012 0.14146 1.095 2.099-0.34466 0.01 0.0152 6e-3 -7.1e-4 0.56585 0.88054 0.0579 0.0219 0.92745 0.23319 0.37853-0.0247 0.2861 0.65123 0.0215 0.0325 0.63042-0.048 0.98142-1.549 0.41981-1.2485 1.004-1.1582 1.6217-0.48789 0.86643 0.66569 0.58631 7e-3 0.47378-0.56057 0.30833-0.36618-0.23777-1.1977 0.52387-0.0603 0.96415-0.34114 0.29633-0.3489 0.68051 0.45438 0.57256 0.6671 0.15275 0.83538 0.0702 0.33126-0.42333 0.42333-0.56339 0.097-0.53904 0.2233-0.48472 0.19968-0.50412 0.19297-0.45896 0.21519-0.69744 0.60149-0.60078 0.42333-0.31151 0.47554-0.57644 0.68651-0.67098 0.52141 1.614 0.86536 1.0753-0.27658 0.24588-0.34502 0.0145 0.0138 1e-3 -1e-3 1.5046 1.4453 0.72672 0.28786 0.56409 0.43745v6e-3l0.0141 8e-3 8e-3 1.1268-0.44944 0.8054-0.64911-0.18557-0.3676 0.64735 0.4378 0.23072-2e-3 4e-3 0.0162 9e-3 -0.75882 1.4517-0.0794 0.036-0.0698 0.0536-0.44379 0.17921-0.35208 0.15981-0.47131 0.75071-0.0226 0.037-0.012 0.0173-0.23177 0.36971-0.3302 1.5455 0.3182 0.0949 0.23425-0.31644 0.49812 0.11007 1.5014 0.30127 0.1524 0.0222 0.56691 0.40181 5e-3 6e-3 8e-3 6e-3 0.59125 0.84949 0.46108 0.39581 0.14006-0.25929 0.33478-0.19685 0.14746 0.0494 0.15664 0.28716-0.1704 0.21096-0.0324 0.34255 0.52282 0.15346 0.51082-0.16052 0.049-0.2032-0.23883-0.42721 0.0141-0.17533 0.40535-0.19615 0.18238-0.25117-7e-3 -0.393-0.0903-0.60325 0.28011-0.39934 0.51999-0.23707 0.17886 0.13194 0.0614 0.23036-0.0187 0.13441-0.139 0.50306-0.42827 0.56903-0.0416 0.22367-0.12629 0.27375-6e-3 0.1651 0.084 0.35384 0.21661 0.94615 0.0642 0.44944-0.35842 1.0224 0.0282 0.30127 0.53869 0.45579 0.34326 0.37817 0.27199-0.0497 0.2667-0.22401 0.44767-0.50447 0.41981-0.64488 0.20214-0.4759 0.12665-0.49812 0.24412-0.14711 0.32208-0.0282 0.1263-0.30833-0.28011-0.0836-0.0416-0.50447 0.0832-0.55421 0.3362-0.51118 0.0709-0.28081-0.0363-0.42086-0.0282-0.38488-0.19474-0.18239-0.43462-0.23848 0.20003-0.52493 0.10195-0.2667 0.35631-0.0935 0.20108 0.11642 0.16969-0.23319 0.32702 0.0275 0.16369 0.31609 0.23036 0.11853 0.45438-0.0773 0.52176-0.32914 0.6537-0.0557 0.46143-0.56797 0.59231-0.44097-0.3683-0.43603-0.55739-0.68757 0.47096-1.4386 0.20179-0.35207 1.7946-0.91722 1.4259-0.19191 0.0392-0.0956 0.21202-0.93557 0.0155-0.14076 0.48295-0.62865 0.11148-0.63959-0.64452-1.1176-0.46743-1.052 0.36512-0.2861 2.4987-1.1042 0.88723-1.7773 1.1204-0.68862 0.11748-0.6036-1.192-0.74013-1.2185-1.7974-1.7734-0.97684-1.0206-1.9382 0.1658-1.6337 0.0646-0.63253-0.86677-1.1366-0.49989-1.4185 0.56056-0.86678 0.60149-0.98319-0.55986-0.77329-0.025-0.71437 0.33513-0.94404 1.1345-0.81174 0.16757-1.7427-0.47096-1.2746 0.88829-2.0581-1.0481-2.0006 0.48895-1.972-0.99554-1.4728-1.4136 0.13476-0.6731-0.43991-0.23319-0.78811 0.0663-0.17815-1.0156-1.3074-0.19473-1.5582-0.21767-0.3429 0.51576-2.8395 0.97438-1.5127-0.59197-1.385-1.669-0.89993-1.8768 0.74118-0.63183 0.012 0.0967-1.3014-0.39052-0.98672z"/></g><g fill="#f0f"><path d="m173.56 109.44-0.40993 0.0519-0.0529 1.1398-0.57009-0.0335-0.44309 0.58067 4e-3 0.01 0.0123 2e-3 1.1434 1.4591 0.13935 0.54011-0.27588 0.56515-0.0751 0.0303-0.37253 0.26211-0.38347 0.0384-0.0512 0.0201-5e-3 -0.0148-0.01 1e-3 -0.0836-0.21766 0.41698-0.35066 2e-3 -0.0272-0.20073-0.63288-9e-3 -0.0138h-0.2928l-0.0441 0.072-0.12277 0.36795-0.26917 0.27058-0.0441 0.0723 0.0776 1.2414 0.012 0.0445 0.40781 0.91158-0.0388 0.45896 0.0134 0.0512-0.2032 0.18204-0.24624 0.25858-0.47342 0.3863-0.33126 0.29668-1.029-0.12135 9e-3 -0.0106-0.0243-3e-3 0.42121-0.61242 0.28258-0.1517 0.0663-0.0748-0.0663-0.48789-0.0134-0.0335-8e-3 -8e-3 -0.47731-0.21344-0.34714-0.54045-0.98918-0.1337-5e-3 -0.0117h-0.01l-0.19544-0.47201-1.3272 0.0328-0.45367 1.234-1.4319 0.20356-0.049 0.037-0.26388 0.35489-1.0326 0.61913-0.14393 0.10795 0.23318 1.1705 0.43533 0.36407 1.0738-0.31891 0.01 0.0124 3e-3 -1e-3 0.526 0.60536-0.61595 0.21344-0.0794 0.0455-0.64629 0.24448-0.49459 0.18697-1.1804 0.3556-0.32702 0.11324-0.65934-0.0617-0.019-0.01-0.39688 0.53622-0.0459 1.3339-1.0135 0.52422 0.18344 0.53023-0.32631 0.53446-0.27059-0.0497-0.31185-0.1016-0.52987 1.3952-0.90241 0.20849 0.14005 2.456 0.57503-0.0543 0.127 0.86572-0.5341 0.37183 1.3021 1.3854-0.52493 0.3937 0.28469 0.9271-0.12912 0.50482 0.33902 0.055-0.25294 2.0126-1.155 0.15911 0.0176 0.3302 1.9449 0.35736 0.19297 1.6058 0.0533 0.35984 0.45014 0.32032-0.17639 0.21802 0.10972 1.0329 0.56656 1.239-0.21026 0.72284 1.1571 0.17074 0.96767-0.58737 0.0977 0.5528-0.57079 0.9151-0.28575 0.055-0.42898 1.1952-0.78387 0.65687-1.487 0.30127 0.17392 0.29775 0.25506 0.66957 0.17744 0.2473 0.19897 0.18485 0.019 0.1644-0.0677 0.2674-0.0176 0.26952 0.0783 0.20285 0.17251 0.11501 0.0145 0.23742-0.15205 0.21801 0.10407 0.21202 0.3182 0.41064 0.0487 0.0751 0.0335 0.19967-0.20073 0.25118-0.0332 0.36759-0.56691 0.71861-0.11748 0.33443 0.0815 0.45685 0.21908 0.36266 8e-3 0.55174 0.35948 1.2372-0.2674 0.45085-0.0632 0.46955 0.0974 0.50024 0.19967 0.18344 0.35066 0.0674 0.2166 0.68545 0.067 0.43427-0.0921 0.32773-8e-3 0.0702-0.0832 0.23742 0.14993 0.45121 0.0335 0.38452-0.20038 0.27094 0.28964 0.77893-0.0928 0.57609 0.28399 0.14781 1.6581-0.72143 0.33725 1.0756 0.70909-0.0677-0.16546-0.23143v-0.75035l0.45015-0.56022 0.0681-0.21766-0.18379-0.10019-0.27658 0.20638-0.43956-0.24518-0.0289-0.49142 0.23142-0.34678 0.0945-0.41134-0.18239-0.11536 0.0656-0.19438-0.16581-0.44168-0.16933-0.18097-0.16263-0.25259 0.0487-0.28011 0.49177-0.44873 0.73554-0.22402 0.34608 0.25224 0.0452 0.19861 0.25083-0.13335 0.49036 0.0325 0.21061 0.21766 0.19967 0.0674 0.28328 0.23319 0.25718 0.0353 0.12276 0.24447-0.25999 0.97508 0.0148 0.1838-0.29527 0.56021 0.0501 0.9024-0.10618 0.27552-0.19968 0.20003-0.11712 0.15099v0.19967l-0.16686 0.21802 0.0342 0.33478 0.23142 0.33973 0.24518 0.72919 0.28963 0.25082 0.24377 0.47132 0.37394 0.36442 0.22719 0.37006 2.5312-0.53234 0.37818 1.0153 0.85055-0.17991 1.1416-0.56374 1.7117-0.11289 0.67839-0.86254 1.2739-1.0689 0.84384-1.7628 0.054-0.79622 0.73483-0.45085 1.0552-0.0773 0.60431-1.2174 0.37359-0.0275 0.49036 0.13264 0.57009-0.2413 0.43674-0.89076 0.59373 0.37888 1.1694-0.0303 1.669 2.0874 0.9345 0.60184-0.39899 0.56656 0.62089 0.29633 0.68121-1.1127 2.4141-0.56903 0.12983 0.62195 2.4391 1.0382 0.23848 0.92957 1.591 0.28505-7e-3 -0.25683-0.17957-1.3786-0.12135-0.1778 0.15416-0.23036 1.9364-2.8946 0.19262 0.0871 2.4768 2.5135 1.0213 0.96167 1.2132-1.9008 1.143-0.70662 0.70415-2.1586-0.5267-1.1035-0.52776-0.99096-0.20566-2.0525-0.98425-0.71825-0.68157-0.45262-1.1991-0.84137-0.65441-0.56868 0.30022-1.6298-1.5928-0.97826-2.0553-1.7547-0.72178-2.2465-1.7378-2.4656-0.14358-0.9652-1.9914-1.1123-5e-3 -0.28752 0.26776-2.2966 1.0502-0.0402 0.0247-0.39511-1.5854-0.54574-0.57644-1.6729-0.61736-0.57996 0.0783-0.96556 0.69039-0.29527-0.16792-1.4838 0.16333-1.8143-0.629-0.33126-0.77364-0.0871-0.35631-0.0758-1.5244-0.16193-0.67733-1.7297 1.179-0.88582-0.70026-0.62124-1.6122 0.0554-0.72602-1.186-2.0553-0.62441-0.78528 0.0557-0.51682-1.3144 0.54927-1.1349 2.1989 0.95567 0.59231 0.46144 0.33585-0.34749 1.1656-2.4723 0.048-0.82445-0.623-0.23918-0.61666-0.19297-0.11924-1.0855-0.25541 0.0226-1.8807 1.3889-0.99695 0.87418-0.88018-0.26-0.83573 0.0367-1.6521-0.65828-0.63429-1.3423-0.54575-0.98531 0.0617-0.61524-0.5969-0.23319-0.82868-0.5147z"/><path d="m153.72 127.35-0.30092-0.0169-0.23283-0.11359-0.18521 0.39652 0.17145 0.9906 0.62689 1.7385 1.5589 0.16651 0.14888-1.2492-0.10231-0.47484 0.13653-0.40111 0.0141-0.35136 0.23389-0.36795-0.0501-0.16651-0.25823-0.0818-0.44309 0.0314-0.38382-0.2674-0.35031 0.0501-0.34995-0.0829z"/></g></g></svg>
